<?xml version="1.0" standalone="no"?>
<!DOCTYPE svg PUBLIC "-//W3C//DTD SVG 20010904//EN"
 "http://www.w3.org/TR/2001/REC-SVG-20010904/DTD/svg10.dtd">
<svg version="1.0" xmlns="http://www.w3.org/2000/svg"
 width="1089.000000pt" height="777.000000pt" viewBox="0 0 1089.000000 777.000000"
 preserveAspectRatio="xMidYMid meet">

<g transform="translate(0.000000,777.000000) scale(0.100000,-0.100000)"
fill="#000000" stroke="none">
<path d="M3671 7368 c-18 -46 -35 -89 -38 -95 -3 -8 3 -13 15 -13 12 0 23 9
27 20 5 16 15 20 50 20 34 0 44 -4 48 -20 3 -12 14 -20 26 -20 l21 0 -21 53
c-12 28 -28 71 -37 95 -12 31 -22 42 -38 42 -17 0 -27 -15 -53 -82z m73 -15
c6 -20 4 -23 -18 -23 -29 0 -31 6 -15 47 11 30 19 24 33 -24z"/>
<path d="M4760 7435 c0 -8 7 -15 15 -15 8 0 15 7 15 15 0 8 -7 15 -15 15 -8 0
-15 -7 -15 -15z"/>
<path d="M5210 7355 l0 -95 63 0 c49 0 68 4 80 18 21 23 22 56 2 72 -11 9 -13
16 -5 24 15 15 12 42 -6 60 -10 11 -34 16 -75 16 l-59 0 0 -95z m107 49 c7
-19 -13 -34 -44 -34 -18 0 -23 6 -23 25 0 21 5 25 30 25 19 0 33 -6 37 -16z
m8 -89 c0 -16 -8 -21 -37 -23 -35 -3 -38 -1 -38 23 0 24 3 26 38 23 29 -2 37
-7 37 -23z"/>
<path d="M5660 7355 c0 -78 3 -95 15 -95 9 0 15 9 15 24 0 38 18 41 38 7 9
-17 25 -31 35 -31 10 0 17 3 15 8 -2 4 -12 24 -23 44 l-19 38 24 25 c21 23 22
25 5 25 -10 0 -32 -12 -47 -27 l-28 -27 0 52 c0 40 -4 52 -15 52 -12 0 -15
-17 -15 -95z"/>
<path d="M5810 7435 c0 -8 7 -15 15 -15 8 0 15 7 15 15 0 8 -7 15 -15 15 -8 0
-15 -7 -15 -15z"/>
<path d="M6302 7438 c-7 -7 -12 -25 -12 -40 0 -23 7 -31 38 -44 61 -27 67 -31
67 -45 0 -21 -63 -25 -71 -5 -6 17 -44 23 -44 7 0 -5 9 -19 19 -32 14 -18 29
-24 59 -24 51 0 72 19 72 61 0 30 -5 36 -37 50 -61 26 -66 29 -65 39 1 16 33
18 57 5 34 -18 48 -9 30 18 -13 17 -26 22 -59 22 -23 0 -47 -5 -54 -12z"/>
<path d="M4023 7433 c-7 -3 -13 -11 -13 -19 0 -8 -4 -14 -10 -14 -5 0 -10 -7
-10 -15 0 -8 5 -15 10 -15 6 0 10 -22 10 -49 0 -31 5 -53 15 -61 18 -15 45 -6
45 15 0 9 -4 14 -9 11 -5 -3 -12 1 -15 10 -11 28 -6 65 9 70 16 6 21 34 7 34
-5 0 -13 8 -18 19 -5 10 -15 16 -21 14z"/>
<path d="M4683 7433 c-7 -3 -13 -11 -13 -19 0 -8 -4 -14 -10 -14 -5 0 -10 -7
-10 -15 0 -8 5 -15 10 -15 6 0 10 -22 10 -49 0 -31 5 -53 15 -61 18 -15 45 -6
45 15 0 9 -4 14 -9 11 -5 -3 -12 1 -15 10 -11 28 -6 65 9 70 19 8 20 34 1 34
-8 0 -16 8 -18 18 -2 11 -9 17 -15 15z"/>
<path d="M6785 7432 c-20 -14 -38 -56 -26 -60 6 -2 11 -25 11 -52 0 -39 4 -52
20 -60 23 -12 40 -6 40 16 0 8 -4 12 -10 9 -6 -4 -10 12 -10 39 0 25 5 46 10
46 6 0 10 7 10 15 0 8 -4 15 -10 15 -5 0 -10 9 -10 20 0 21 -8 25 -25 12z"/>
<path d="M3840 7340 c0 -52 3 -62 24 -75 18 -12 30 -14 44 -6 10 5 28 7 40 4
21 -5 22 -2 22 66 0 64 -2 71 -20 71 -16 0 -19 -8 -22 -57 -3 -50 -6 -58 -23
-58 -17 0 -20 8 -23 58 -3 49 -6 57 -22 57 -18 0 -20 -7 -20 -60z"/>
<path d="M4110 7380 c-43 -43 -12 -123 48 -123 43 0 72 28 72 70 0 42 -30 73
-70 73 -17 0 -39 -9 -50 -20z m81 -37 c6 -16 3 -29 -10 -45 -16 -19 -21 -20
-35 -9 -16 14 -22 62 -9 75 14 13 46 1 54 -21z"/>
<path d="M4260 7330 c0 -64 2 -70 21 -70 15 0 20 6 19 23 -6 63 0 87 20 87 18
0 20 -7 20 -55 0 -48 3 -55 19 -55 17 0 20 8 23 53 3 44 6 52 23 52 17 0 20
-8 23 -52 2 -38 7 -53 18 -53 11 0 14 14 14 59 0 71 -16 91 -61 74 -17 -7 -31
-7 -35 -2 -8 13 -48 11 -62 -3 -9 -9 -12 -9 -12 0 0 7 -7 12 -15 12 -12 0 -15
-14 -15 -70z"/>
<path d="M4527 7389 c-28 -16 -40 -58 -27 -90 24 -57 103 -58 129 -2 16 36 14
51 -14 78 -25 26 -58 31 -88 14z m61 -31 c32 -32 1 -89 -37 -68 -33 17 -22 80
14 80 6 0 16 -5 23 -12z"/>
<path d="M4760 7330 c0 -56 3 -70 15 -70 12 0 15 14 15 70 0 56 -3 70 -15 70
-12 0 -15 -14 -15 -70z"/>
<path d="M4820 7391 c0 -5 12 -37 26 -70 27 -62 56 -81 67 -43 2 9 14 41 26
70 19 49 20 52 3 52 -12 0 -25 -16 -38 -47 l-20 -48 -15 45 c-8 27 -21 46 -31
48 -10 2 -18 -1 -18 -7z"/>
<path d="M4996 7384 c-53 -52 -11 -146 58 -128 33 8 56 44 28 44 -10 0 -23 -5
-30 -12 -8 -8 -15 -8 -27 2 -26 21 -17 30 30 30 38 0 45 3 45 20 0 48 -71 78
-104 44z m68 -29 c4 -11 -2 -15 -24 -15 -29 0 -38 9 -23 23 12 12 41 7 47 -8z"/>
<path d="M5400 7328 c0 -61 2 -68 20 -68 17 0 20 7 20 50 0 45 3 52 25 60 39
15 29 28 -20 28 l-45 -1 0 -69z"/>
<path d="M5515 7380 c-19 -21 -19 -21 23 -18 48 4 61 -13 16 -22 -44 -9 -54
-18 -54 -45 0 -29 32 -49 63 -39 12 4 31 7 42 5 18 -2 20 3 17 56 -2 32 -9 64
-14 71 -16 19 -73 15 -93 -8z m65 -80 c-12 -22 -40 -27 -40 -7 0 19 10 27 32
27 16 0 17 -3 8 -20z"/>
<path d="M5810 7330 c0 -56 3 -70 15 -70 12 0 15 14 15 70 0 56 -3 70 -15 70
-12 0 -15 -14 -15 -70z"/>
<path d="M5880 7330 c0 -63 2 -70 19 -70 17 0 20 8 23 53 3 45 6 52 26 55 21
3 22 0 22 -52 0 -49 2 -56 20 -56 18 0 20 7 20 58 0 62 -11 82 -45 82 -12 0
-26 -5 -33 -12 -9 -9 -12 -9 -12 0 0 7 -9 12 -20 12 -18 0 -20 -7 -20 -70z"/>
<path d="M6059 7379 c-23 -23 -25 -67 -3 -97 17 -24 53 -29 73 -9 10 10 12 7
9 -13 -2 -19 -9 -25 -28 -24 -14 1 -33 5 -44 9 -14 6 -17 4 -14 -11 4 -23 47
-39 82 -30 34 9 46 40 46 125 l0 69 -51 0 c-37 0 -57 -6 -70 -19z m76 -49 c0
-31 -3 -35 -25 -35 -19 0 -26 6 -28 23 -5 36 5 54 30 50 19 -2 23 -9 23 -38z"/>
<path d="M6475 7335 c30 -80 31 -95 5 -102 -12 -3 -19 -11 -17 -17 6 -19 35
-18 54 1 20 20 78 171 69 180 -13 13 -33 -8 -45 -47 -14 -47 -23 -44 -41 13
-8 25 -17 37 -30 37 -18 0 -18 -3 5 -65z"/>
<path d="M6625 7384 c-29 -29 -14 -52 48 -74 16 -5 25 -14 22 -20 -8 -13 -45
-13 -45 0 0 6 -9 10 -21 10 -28 0 -20 -22 15 -38 22 -11 33 -11 56 -2 54 23
49 64 -11 81 -51 16 -51 33 1 24 43 -7 55 6 21 25 -29 15 -67 12 -86 -6z"/>
<path d="M6870 7380 c-30 -30 -27 -83 6 -109 33 -26 45 -26 75 -2 29 24 18 39
-15 22 -26 -15 -46 -8 -46 15 0 10 13 14 46 14 45 0 46 1 40 28 -13 52 -69 69
-106 32z m68 -27 c2 -8 -6 -13 -22 -13 -25 0 -33 10 -19 24 10 10 36 3 41 -11z"/>
<path d="M7010 7330 c0 -56 3 -70 15 -70 11 0 15 11 15 39 0 52 8 71 31 71 16
0 19 -8 19 -55 0 -48 2 -55 20 -55 17 0 20 7 20 50 0 37 4 52 16 57 22 8 34
-14 34 -64 0 -32 4 -43 15 -43 12 0 15 13 15 58 0 32 -5 63 -12 70 -15 15 -50
16 -65 1 -8 -8 -13 -8 -17 0 -9 15 -49 14 -64 -1 -9 -9 -12 -9 -12 0 0 7 -7
12 -15 12 -12 0 -15 -14 -15 -70z"/>
<path d="M6600 6915 c-89 -21 -117 -32 -198 -75 -240 -130 -362 -359 -380
-713 l-7 -127 -29 26 c-16 15 -43 32 -60 38 -19 7 -55 38 -86 75 -30 35 -84
87 -120 114 -36 27 -67 57 -68 66 -5 22 -49 67 -101 103 -40 28 -52 31 -130
33 -69 1 -96 -2 -136 -20 -27 -12 -79 -30 -114 -39 -170 -47 -263 -118 -333
-253 -112 -216 -107 -212 -184 -167 -63 37 -118 37 -150 1 -13 -15 -27 -45
-30 -66 -9 -55 -15 -61 -72 -68 -29 -3 -52 -9 -52 -13 0 -11 -97 -29 -184 -34
-66 -4 -84 -1 -118 16 -58 30 -119 29 -153 -2 -35 -32 -53 -68 -61 -118 -9
-59 -31 -62 -46 -7 -8 30 -17 44 -27 42 -15 -2 -38 34 -147 226 -31 54 -61 96
-67 94 -7 -3 -11 -9 -10 -14 1 -5 43 -80 94 -168 56 -96 87 -161 80 -163 -7
-2 0 -18 19 -42 l30 -38 -21 -46 c-11 -26 -19 -59 -17 -74 2 -22 -5 -33 -39
-59 -84 -66 -88 -77 -88 -255 l0 -157 28 -28 c15 -16 27 -34 27 -40 0 -7 -26
-25 -57 -41 -77 -39 -116 -98 -121 -186 -3 -52 0 -69 25 -116 16 -30 44 -65
63 -78 31 -21 44 -23 105 -19 46 3 98 15 152 36 l81 32 64 -36 c97 -53 176
-42 224 30 19 30 30 24 76 -39 27 -37 28 -44 28 -152 0 -112 0 -113 -30 -142
-24 -25 -30 -39 -30 -75 0 -41 -3 -46 -35 -61 -19 -10 -42 -28 -51 -42 -21
-31 -32 -30 -95 6 -46 28 -53 29 -73 17 -12 -8 -43 -52 -69 -98 -46 -83 -47
-85 -47 -172 0 -86 -1 -90 -30 -117 -17 -16 -30 -38 -30 -52 0 -18 -10 -30
-37 -46 -55 -31 -91 -65 -103 -96 -5 -15 -10 -90 -10 -167 0 -87 -4 -139 -10
-139 -13 0 -60 105 -60 133 0 21 -96 120 -197 201 l-60 49 17 68 c15 57 16 69
4 69 -11 0 -14 17 -14 75 0 60 -3 75 -15 75 -12 0 -15 -15 -15 -76 0 -64 -2
-75 -15 -70 -8 3 -15 4 -15 3 0 -1 7 -27 15 -57 8 -30 13 -56 10 -58 -2 -2
-27 15 -57 38 -54 43 -147 90 -178 90 -23 0 -87 27 -95 40 -3 5 -26 22 -51 36
-41 24 -49 26 -84 15 -63 -19 -70 -47 -70 -264 0 -113 -4 -188 -10 -192 -6 -3
-10 -17 -10 -30 0 -20 -6 -24 -50 -30 -56 -8 -80 -25 -80 -58 0 -18 -6 -22
-31 -21 -43 1 -255 185 -301 261 -29 48 -83 96 -130 115 -21 9 -110 115 -142
171 -38 66 -47 115 -54 315 -9 211 -12 224 -94 325 -30 38 -48 70 -48 86 1 90
22 286 36 340 18 73 14 127 -15 199 -10 26 -27 81 -36 122 -9 41 -42 126 -72
189 -44 93 -67 127 -118 178 -77 77 -163 120 -250 127 -33 2 -109 21 -169 40
-120 40 -148 43 -166 21 -8 -10 -30 -15 -65 -15 -65 0 -93 -20 -128 -93 -24
-50 -29 -55 -74 -66 -127 -32 -280 -148 -377 -285 -106 -150 -186 -350 -221
-551 -21 -121 -24 -339 -6 -445 53 -313 190 -510 407 -584 38 -13 96 -35 129
-50 33 -14 69 -25 80 -25 11 0 -3 7 -30 17 -183 63 -308 226 -375 487 -27 103
-37 325 -21 455 36 292 147 545 315 718 124 128 248 191 377 192 76 0 169 -24
169 -45 0 -7 -11 -66 -25 -131 -31 -141 -27 -158 51 -246 48 -54 74 -105 74
-147 0 -8 -17 12 -38 45 -131 202 -313 218 -478 42 -115 -124 -179 -305 -178
-508 2 -272 124 -450 309 -450 156 0 323 154 394 363 l18 52 -1 -67 c-1 -61 2
-69 29 -99 35 -36 98 -68 137 -69 15 0 29 -4 32 -8 2 -4 -15 -50 -40 -101
-117 -246 -302 -422 -509 -482 -33 -10 -50 -18 -38 -18 32 -1 127 36 197 77
72 41 227 194 278 272 42 65 80 137 107 201 19 46 20 47 78 53 95 12 127 24
163 61 19 19 37 35 41 35 4 0 15 -17 24 -37 15 -30 19 -77 25 -238 7 -197 13
-233 54 -325 5 -13 -8 -20 -64 -34 -52 -14 -70 -23 -68 -34 2 -11 -57 -50
-189 -126 -106 -61 -193 -117 -193 -125 0 -19 12 -13 218 106 138 80 186 103
192 93 6 -10 22 0 60 36 28 27 55 50 58 51 4 1 31 -32 61 -73 29 -41 55 -73
58 -71 2 3 -21 39 -52 82 -30 42 -53 81 -50 85 3 4 -1 10 -9 13 -8 3 -24 32
-36 64 -19 50 -23 87 -29 263 -9 244 -8 241 -127 356 -81 78 -84 83 -73 108 7
14 19 26 27 26 26 0 110 -60 159 -114 78 -87 86 -113 94 -331 9 -249 15 -268
125 -406 l53 -66 -26 -14 c-14 -8 -32 -29 -40 -47 -12 -28 -11 -36 4 -60 41
-66 122 -132 162 -132 21 0 291 -254 291 -274 0 -15 58 -71 82 -79 13 -5 18
-17 18 -46 0 -22 5 -43 10 -46 21 -13 8 -23 -55 -40 -48 -13 -63 -21 -56 -29
7 -9 -42 -42 -180 -121 -105 -61 -196 -113 -202 -117 -8 -5 -8 -11 -2 -17 7
-7 77 29 209 104 110 63 201 115 203 115 2 0 3 -8 3 -17 0 -12 17 -1 53 35 29
29 56 52 60 52 5 0 41 -32 82 -70 74 -70 75 -71 103 -56 26 13 31 13 45 -1 8
-9 31 -19 50 -22 28 -5 88 -53 277 -221 133 -118 249 -220 257 -227 8 -6 19
-31 24 -55 13 -54 32 -75 82 -89 25 -7 59 -29 91 -60 l51 -49 -72 0 c-59 0
-71 -3 -67 -15 4 -9 -2 -16 -18 -20 -190 -48 -413 -114 -416 -123 -6 -18 8
-16 232 44 156 41 211 52 216 43 6 -9 25 -2 72 24 l63 35 40 -24 c29 -17 55
-24 93 -24 28 0 52 -2 52 -5 0 -2 -20 -32 -44 -67 -136 -196 -200 -382 -227
-658 -31 -331 39 -650 183 -835 40 -52 134 -132 143 -123 3 2 -15 18 -39 35
-54 38 -127 128 -165 203 -81 157 -113 322 -113 570 1 342 57 543 220 788 110
165 273 313 426 387 116 56 276 85 276 50 0 -8 6 -15 13 -16 6 -1 -17 -7 -53
-15 -176 -39 -383 -184 -524 -368 -178 -232 -253 -437 -275 -748 -25 -345 52
-666 198 -829 28 -31 48 -59 45 -62 -3 -3 9 -13 28 -23 18 -9 46 -28 62 -41
65 -54 233 -115 310 -112 24 1 20 3 -16 9 -77 13 -143 39 -205 79 -142 94
-232 246 -285 481 -20 91 -23 131 -23 310 0 295 31 447 131 644 182 360 492
598 779 598 171 1 174 -6 165 -355 -2 -78 -4 -88 -19 -81 -107 46 -149 56
-227 52 -68 -3 -91 -8 -155 -40 -201 -99 -352 -330 -381 -581 -19 -169 3 -333
62 -452 52 -105 114 -160 232 -205 46 -17 108 -44 138 -58 48 -24 67 -27 156
-27 95 0 104 2 175 37 86 43 177 128 245 230 l45 67 35 -16 c18 -9 34 -21 34
-25 0 -13 -46 -101 -92 -176 -137 -225 -326 -389 -523 -457 -27 -9 -93 -23
-145 -31 -93 -13 -94 -14 -20 -9 148 11 269 58 400 156 136 103 269 269 357
443 19 39 36 72 38 74 1 1 35 -12 76 -29 134 -57 165 -57 207 5 29 42 87 188
103 259 11 51 10 56 -12 87 -19 25 -21 34 -10 38 58 20 75 86 75 297 0 191
-19 313 -75 472 -56 158 -154 328 -212 366 -13 8 -30 29 -36 45 -16 37 -58 58
-282 140 -225 82 -293 102 -351 102 -87 0 -128 -37 -167 -152 l-18 -53 -66 -7
c-125 -12 -270 -76 -391 -172 -95 -77 -195 -96 -283 -57 -41 19 -133 96 -133
112 0 12 -55 92 -78 112 -11 10 -31 17 -45 15 -20 -2 -75 41 -289 229 -251
220 -264 233 -260 262 3 19 -3 42 -16 63 -15 25 -21 57 -24 131 l-5 99 -53 53
c-52 53 -53 54 -47 102 4 32 1 56 -8 73 -11 18 -14 68 -15 183 0 135 2 157 16
157 8 0 21 -15 29 -33 7 -18 23 -41 34 -51 12 -11 21 -25 21 -32 0 -31 85
-123 210 -228 193 -161 223 -180 310 -201 44 -10 85 -27 100 -40 73 -66 121
-70 145 -12 15 37 35 197 35 283 0 50 3 59 32 86 27 25 38 29 69 24 20 -3 58
-2 84 3 30 6 59 5 81 -2 26 -8 47 -8 80 1 41 11 47 10 84 -13 42 -26 75 -31
100 -15 12 8 9 10 -10 8 -22 -3 -25 1 -28 37 -2 22 -7 44 -12 49 -5 5 -38 -6
-80 -28 -39 -21 -73 -36 -76 -34 -2 3 -8 45 -14 94 -5 49 -12 107 -15 129 -5
35 0 50 40 118 40 67 50 78 68 74 12 -3 43 -9 70 -12 46 -7 47 -7 47 19 0 20
5 26 23 26 25 0 163 63 190 87 9 9 17 24 17 34 0 13 24 31 79 59 44 22 96 54
116 71 19 17 70 49 112 71 l76 39 22 -21 c26 -25 57 -26 77 -2 9 9 31 54 48
100 38 96 67 132 107 132 l28 -1 -31 -13 c-62 -27 -98 -109 -72 -164 16 -33
69 -53 121 -46 20 3 37 3 37 -1 0 -19 -23 -44 -51 -55 -27 -12 -30 -17 -25
-44 21 -108 21 -104 -16 -139 -34 -31 -365 -227 -385 -227 -6 0 -27 14 -48 30
-44 35 -64 37 -121 11 -50 -23 -79 -82 -69 -140 5 -32 2 -39 -24 -59 -25 -18
-30 -30 -33 -69 -2 -36 -7 -49 -20 -51 -12 -2 -18 3 -19 15 0 12 -5 8 -14 -13
-9 -19 -28 -37 -54 -49 -23 -10 -39 -20 -37 -22 2 -3 18 3 35 11 16 9 33 16
36 16 6 0 0 -41 -11 -82 -4 -13 -1 -16 10 -12 14 5 16 -5 16 -75 0 -65 3 -81
15 -81 12 0 15 16 15 81 0 51 4 78 10 74 13 -8 13 16 -1 71 -11 42 -10 46 10
60 15 11 21 26 21 55 0 26 7 46 20 59 24 24 29 24 55 7 11 -7 44 -21 72 -31
51 -17 54 -17 90 1 20 10 46 30 57 46 20 27 18 57 -8 118 -5 11 2 19 21 28 74
34 331 190 365 222 28 27 38 44 38 67 0 23 9 38 37 61 21 17 47 31 59 31 13 0
30 3 39 6 19 8 45 55 45 84 0 23 9 25 44 9 48 -22 50 -39 42 -490 -5 -298 -4
-424 4 -439 12 -22 379 -340 486 -421 74 -56 121 -69 169 -46 21 10 47 14 72
10 33 -4 53 2 121 37 78 41 82 45 82 77 0 38 -28 99 -59 127 -14 12 -30 17
-51 14 -27 -4 -31 -2 -28 16 8 53 98 11 136 -64 16 -33 22 -59 20 -95 -3 -46
-5 -50 -33 -56 l-30 -7 33 -1 c22 -1 55 11 94 34 l61 36 -7 -31 c-3 -16 -9
-43 -12 -60 -4 -19 -2 -30 5 -30 8 0 11 -56 11 -190 0 -162 2 -190 15 -190 13
0 15 28 15 190 0 163 2 190 15 190 16 0 15 20 -6 84 -5 16 -9 35 -9 41 0 7 39
35 88 63 71 41 96 63 137 117 84 111 138 127 227 67 l40 -26 85 44 c47 25 89
46 94 48 4 2 20 -18 35 -43 19 -33 31 -44 42 -40 11 4 56 -34 148 -126 85 -85
136 -129 144 -124 8 5 -34 54 -126 147 -97 97 -135 141 -126 146 8 6 -2 16
-34 34 l-46 25 43 24 c42 23 44 26 47 77 3 45 8 58 34 80 16 15 37 35 46 45
10 10 67 43 127 74 261 133 513 267 547 292 72 51 86 111 42 177 -32 47 15 12
-436 330 -208 147 -378 271 -378 275 0 24 235 143 276 141 63 -5 271 159 333
262 50 83 70 169 82 351 10 144 13 162 33 177 29 24 33 23 56 -21 14 -29 46
-57 125 -111 91 -61 110 -70 136 -65 23 5 37 1 62 -17 18 -14 40 -27 49 -31
22 -8 38 -67 38 -147 0 -74 22 -131 66 -172 32 -29 291 -200 619 -408 116 -73
211 -134 212 -135 2 -1 -19 -46 -46 -101 -56 -112 -101 -248 -128 -379 -27
-136 -24 -380 5 -500 88 -352 334 -533 617 -454 39 10 106 21 150 23 126 6
241 58 349 158 272 249 404 695 311 1053 -24 90 -72 179 -135 248 -31 34 -72
91 -90 126 -70 131 -201 229 -338 253 -103 17 -190 1 -312 -58 -85 -42 -107
-59 -210 -163 l-116 -116 -144 93 c-516 332 -649 420 -677 448 -29 28 -33 38
-33 87 0 93 -17 157 -60 221 -22 32 -40 65 -40 72 0 7 -18 32 -39 55 -21 23
-44 59 -50 79 -6 20 -20 45 -31 55 -16 15 -20 31 -20 84 0 47 -6 78 -20 106
-11 21 -17 42 -12 46 4 3 37 14 74 24 50 13 65 21 58 30 -7 9 35 37 155 106
91 52 165 100 165 107 0 6 -4 12 -9 12 -5 0 -83 -43 -173 -95 -126 -73 -164
-91 -166 -78 -3 11 -20 0 -62 -42 l-57 -56 -34 20 c-24 15 -51 21 -91 21 -67
0 -97 -11 -155 -58 -62 -49 -93 -108 -107 -205 -11 -72 -15 -84 -38 -97 -34
-19 -34 -19 -313 164 -218 142 -220 144 -218 177 1 19 5 84 9 144 15 234 -52
456 -179 591 -64 69 -122 107 -195 129 -60 19 -333 19 -412 0z m63 -42 c-7 -2
-21 -2 -30 0 -10 3 -4 5 12 5 17 0 24 -2 18 -5z m-63 -33 c0 -5 -7 -10 -15
-10 -8 0 -15 5 -15 10 0 6 7 10 15 10 8 0 15 -4 15 -10z m-70 -54 c0 -11 -19
-15 -25 -6 -3 5 1 10 9 10 9 0 16 -2 16 -4z m452 -38 c125 -57 217 -203 248
-390 5 -35 10 -78 10 -96 0 -29 -2 -31 -19 -20 -26 16 -48 -3 -57 -48 -11 -57
-20 -29 -22 63 -2 140 -46 318 -92 375 -16 20 -19 21 -25 6 -3 -9 2 -33 13
-55 25 -49 53 -143 43 -143 -16 0 -40 36 -61 93 -13 35 -27 57 -37 57 -16 0
-15 -22 3 -65 8 -21 13 -24 -98 59 -21 16 -38 37 -38 47 0 10 -5 21 -11 25 -6
3 -8 17 -5 30 5 18 0 31 -18 49 -14 14 -30 25 -36 25 -26 0 -67 -31 -90 -68
-20 -32 -30 -40 -47 -36 -40 10 -80 -55 -55 -92 21 -31 78 -34 96 -5 9 14 36
2 36 -15 0 -8 14 -17 30 -21 17 -3 33 -9 35 -14 3 -4 -39 -22 -92 -39 -54 -18
-110 -39 -126 -47 -16 -8 -31 -13 -33 -11 -2 2 6 34 18 71 22 66 18 98 -7 64
-15 -21 -52 -152 -66 -235 -5 -31 -13 -125 -19 -208 -13 -191 -1 -313 41 -435
17 -49 28 -96 25 -105 -9 -23 -33 -27 -67 -10 -38 19 -39 19 -39 4 0 -42 75
-63 118 -32 29 20 28 51 -5 132 l-28 67 3 308 c2 170 7 319 12 332 12 31 60
55 188 95 68 21 107 29 114 22 6 -6 -32 -22 -109 -46 -173 -54 -168 -47 -176
-276 -4 -101 -7 -232 -7 -292 0 -70 -4 -107 -10 -103 -5 3 -10 2 -10 -4 0 -6
14 -18 32 -27 32 -16 39 -16 127 13 9 3 1 -7 -16 -22 -32 -26 -33 -28 -33
-107 0 -76 1 -81 29 -106 l30 -25 -32 -16 c-23 -12 -32 -23 -31 -40 1 -21 -2
-23 -34 -18 -78 13 -186 96 -237 183 -33 56 -72 176 -80 248 -7 56 -7 58 12
47 16 -8 24 -7 37 8 22 24 30 79 17 114 -12 31 -27 34 -54 10 -19 -18 -20 -17
-13 42 39 340 256 642 506 705 58 15 152 5 212 -22z m-513 -7 c10 -6 10 -10 1
-16 -7 -4 -19 0 -28 9 -14 13 -14 16 -2 16 8 0 21 -4 29 -9z m351 -42 c0 -22
-6 -29 -30 -34 -31 -7 -70 -47 -70 -72 0 -8 -7 -13 -17 -11 -47 9 -12 125 46
154 35 18 71 -1 71 -37z m-396 -7 c8 -13 -11 -35 -23 -28 -16 10 -14 36 3 36
8 0 17 -4 20 -8z m406 -50 c0 -5 -15 -15 -32 -23 -23 -10 -36 -24 -43 -46 -11
-41 -25 -43 -25 -4 0 41 35 81 71 81 16 0 29 -4 29 -8z m-159 -36 c10 -36 -4
-56 -37 -56 -32 0 -51 38 -34 69 17 33 61 25 71 -13z m-291 19 c0 -3 -7 -17
-16 -31 -13 -19 -20 -22 -30 -13 -8 6 -14 20 -14 30 0 14 7 19 30 19 17 0 30
-2 30 -5z m572 -106 c68 -51 125 -94 128 -96 3 -3 7 -57 10 -121 l5 -117 58
-40 c49 -33 60 -37 68 -25 9 13 10 12 6 -2 -5 -13 66 -62 311 -221 174 -112
322 -207 329 -211 7 -4 26 0 43 9 28 14 30 14 30 -2 -1 -55 -30 -83 -89 -83
-31 0 -86 34 -523 323 -163 108 -302 205 -307 216 -6 11 -11 67 -11 124 l0
105 -31 27 c-17 14 -74 51 -125 81 -91 53 -93 55 -83 82 11 28 26 42 46 42 6
0 67 -41 135 -91z m-650 13 c15 -7 15 -9 -1 -41 l-18 -34 -16 24 c-33 46 -15
71 35 51z m596 -116 c-15 -33 -3 -76 21 -76 20 0 45 20 54 42 14 35 27 -26 27
-128 0 -91 3 -114 16 -125 14 -11 16 -30 12 -116 -6 -136 -8 -138 -194 -200
-92 -30 -139 -50 -131 -56 8 -5 5 -6 -8 -3 -11 3 -41 -1 -68 -9 -81 -24 -77
-39 -77 280 0 287 5 336 38 351 9 4 73 26 142 49 114 38 127 41 152 28 24 -12
26 -16 16 -37z m-651 18 c19 -5 20 -9 11 -30 -14 -31 -22 -30 -36 1 -18 39
-17 40 25 29z m-20 -98 c2 -2 -1 -16 -7 -32 -11 -28 -12 -29 -26 -9 -9 11 -20
29 -26 39 -9 17 -7 18 23 12 18 -3 34 -8 36 -10z m-38 -112 c2 -2 -1 -18 -6
-36 l-10 -33 -17 37 c-9 21 -16 40 -16 43 0 6 40 -3 49 -11z m1034 -5 c7 -26
-2 -77 -15 -85 -19 -12 -40 19 -34 49 11 53 39 74 49 36z m-1922 -45 c221 -64
478 -362 569 -659 52 -172 65 -382 36 -617 -18 -142 -30 -190 -62 -245 -36
-62 -38 -53 -4 20 29 61 38 97 23 97 -5 0 -26 -35 -48 -78 l-40 -77 -39 2
c-38 3 -39 2 -21 -17 10 -11 30 -20 44 -20 24 0 22 -3 -19 -30 l-45 -30 -5 63
c-5 56 -3 62 15 65 11 2 34 16 50 31 17 16 38 31 48 34 43 16 83 180 74 304
-4 50 -15 94 -36 141 -16 37 -32 83 -36 103 -5 34 -9 37 -46 42 -50 7 -72 -5
-132 -68 l-47 -49 -20 39 c-11 22 -47 69 -80 105 -34 36 -79 95 -101 132 -46
79 -89 115 -146 124 l-42 6 4 107 c2 58 10 131 18 161 35 132 30 247 -12 270
-91 48 -271 -16 -271 -97 0 -15 9 -48 20 -72 25 -53 25 -58 2 -38 -31 28 -65
105 -58 133 9 33 81 83 159 111 75 27 170 30 248 7z m-100 -65 c20 -20 21 -29
16 -123 -5 -85 -18 -157 -34 -175 -2 -3 -9 4 -16 13 -10 13 -11 34 -6 75 8 57
-1 125 -20 144 -13 13 -66 11 -103 -4 -34 -14 -43 -43 -29 -95 6 -21 8 -40 5
-43 -9 -10 -41 36 -60 85 -16 41 -16 49 -3 72 36 65 202 99 250 51z m968 -15
c5 -5 -10 -24 -19 -24 -5 0 -14 9 -21 21 -10 19 -9 20 13 14 12 -4 25 -9 27
-11z m914 -17 l29 -22 -23 -95 c-12 -52 -23 -120 -23 -150 l-1 -55 -37 1 c-31
1 -38 -2 -38 -18 0 -42 88 -39 111 4 7 12 8 41 5 72 -6 48 0 93 25 189 10 39
15 40 63 3 18 -14 17 -17 -4 -83 -46 -138 -135 -286 -223 -371 -19 -18 -41
-34 -49 -36 -8 -1 -27 -9 -41 -19 -27 -17 -87 -24 -87 -9 0 16 45 50 74 58 22
5 32 3 43 -12 14 -19 15 -18 11 1 -7 42 -116 17 -135 -32 -8 -21 24 -45 51
-38 27 6 -71 -41 -104 -50 l-25 -7 28 21 c30 25 35 46 11 59 -12 7 -2 16 45
46 82 50 91 65 91 152 0 66 -2 74 -26 93 -15 12 -25 21 -23 21 2 1 40 13 83
28 107 37 119 54 124 177 3 52 7 95 11 95 3 0 19 -10 34 -23z m1227 -55 c44
-44 60 -92 60 -182 0 -68 -10 -90 -42 -90 -16 0 -18 10 -18 80 0 98 -16 142
-59 160 -62 25 -134 -4 -177 -72 -38 -60 -52 -138 -63 -348 -6 -107 -18 -224
-26 -259 -21 -86 -66 -168 -125 -226 l-49 -48 -10 25 c-5 14 -14 29 -19 32 -5
3 12 27 38 54 54 56 96 135 109 208 6 28 13 131 16 230 10 278 25 335 105 408
56 50 93 65 164 66 54 0 61 -3 96 -38z m-3170 -1 c13 -26 13 -148 0 -156 -6
-4 -16 -2 -23 3 -7 5 -28 15 -48 21 -32 10 -37 17 -46 58 -6 26 -9 52 -6 58
13 35 106 47 123 16z m1004 13 c9 -3 16 -12 16 -20 0 -17 -12 -18 -28 -2 -22
22 -16 33 12 22z m343 -91 c-2 -21 -4 -6 -4 32 0 39 2 55 4 38 2 -18 2 -50 0
-70z m-167 61 c14 -37 -5 -106 -28 -102 -33 6 -24 128 9 128 5 0 14 -12 19
-26z m-1687 -31 c50 -25 133 -81 252 -169 212 -156 199 -127 203 -474 3 -280
-1 -324 -34 -337 -26 -10 -40 13 -25 41 10 18 12 86 10 282 -4 295 -4 295 -97
372 -55 46 -282 202 -330 226 -35 18 -72 8 -72 -18 0 -8 -13 -19 -30 -25 -26
-9 -30 -8 -30 9 0 26 18 72 37 92 20 23 74 23 116 1z m3612 7 c32 -12 55 -64
55 -122 0 -37 -5 -46 -30 -63 -16 -11 -30 -23 -30 -27 0 -14 -25 -8 -74 18
-35 18 -60 25 -87 22 -22 -2 -39 -2 -39 -1 0 1 9 26 20 56 21 57 46 86 95 111
35 18 54 20 90 6z m-2095 -40 c0 -23 -10 -26 -28 -8 -18 18 -15 28 8 28 13 0
20 -7 20 -20z m-1270 -17 c37 -25 41 -34 35 -78 -4 -29 -2 -36 5 -25 5 8 10
31 10 50 l1 35 34 -39 c34 -39 48 -97 26 -110 -5 -3 -28 9 -52 28 -33 25 -43
40 -44 62 0 27 -3 29 -45 32 -50 4 -81 22 -38 22 15 0 30 4 33 10 8 13 -39 24
-75 17 -16 -4 -32 -2 -35 3 -11 18 118 12 145 -7z m-310 -28 c-7 -9 -15 -13
-17 -11 -7 7 7 26 19 26 6 0 6 -6 -2 -15z m3118 -214 c133 -85 155 -93 205
-76 l37 13 0 -92 c0 -176 -32 -276 -115 -365 -42 -45 -104 -80 -130 -72 -18 5
-117 -53 -127 -74 -5 -11 -29 -28 -53 -39 -63 -25 -204 -112 -238 -145 -16
-16 -30 -43 -34 -64 -5 -34 -2 -41 35 -76 22 -21 190 -145 374 -276 407 -290
420 -301 416 -328 -3 -21 -28 -36 -338 -199 -74 -39 -157 -83 -185 -98 -207
-112 -220 -114 -303 -54 -2 1 8 36 22 78 28 85 36 167 17 190 -35 42 -191 53
-259 18 -34 -17 -37 -23 -40 -65 -2 -31 7 -76 29 -141 37 -112 38 -108 -57
-161 l-64 -36 0 -68 c0 -64 -2 -70 -35 -104 -44 -45 -56 -48 -175 -44 l-95 4
-132 -68 c-170 -87 -213 -115 -213 -137 0 -10 -16 -26 -37 -37 -38 -21 -93
-96 -93 -127 0 -28 -41 -22 -91 14 -53 38 -366 299 -427 356 l-44 41 4 410 3
411 26 0 c25 0 50 4 202 30 53 10 70 10 82 0 23 -19 52 -2 135 76 80 76 110
125 110 182 0 21 10 58 21 82 12 25 33 92 48 150 18 76 32 110 47 123 34 26
57 107 50 175 -20 209 -20 210 -47 239 -20 21 -30 50 -43 118 -10 49 -32 125
-51 167 -18 43 -32 78 -30 78 2 0 15 -21 31 -47 15 -26 43 -65 64 -87 20 -23
52 -68 70 -100 101 -173 282 -267 456 -236 175 30 341 152 470 346 57 86 122
223 143 302 l12 42 117 -78 c64 -43 168 -111 230 -151z m-3060 210 c9 -5 2
-15 -28 -35 -22 -14 -40 -33 -40 -41 0 -22 11 -19 63 16 31 20 53 29 65 24 15
-6 14 -9 -8 -23 -86 -58 -74 -80 37 -65 77 10 103 8 103 -7 0 -22 -175 -27
-225 -6 -58 25 -72 80 -30 121 25 26 41 30 63 16z m1522 -31 c0 -11 -2 -20 -5
-20 -2 0 -9 9 -15 20 -9 16 -8 20 5 20 8 0 15 -9 15 -20z m-2117 -53 c35 -15
172 -120 344 -264 162 -136 158 -124 158 -443 -1 -216 -3 -261 -17 -292 -17
-37 -38 -51 -38 -25 -1 6 -2 136 -3 287 -2 261 -3 277 -24 315 -29 54 -96 116
-233 217 -237 175 -255 182 -298 118 -20 -30 -82 -70 -82 -52 0 29 26 88 52
117 25 29 37 35 69 35 22 0 54 -6 72 -13z m554 -64 c44 -19 172 -21 217 -4 25
10 34 8 68 -14 21 -14 38 -29 38 -34 0 -14 -106 -52 -166 -60 -68 -10 -153 9
-203 43 -50 35 -60 66 -36 114 l17 37 14 -33 c9 -22 26 -38 51 -49z m1571 21
l2 -29 -14 25 c-19 31 -20 43 -3 38 6 -3 13 -18 15 -34z m1989 17 l32 -20 -19
-48 c-10 -26 -22 -49 -26 -50 -5 -2 -15 11 -23 28 -13 31 -20 32 -65 13 -18
-7 -19 -4 -12 37 4 24 12 47 19 51 21 13 61 9 94 -11z m153 -10 c0 -50 60 -48
80 2 8 21 9 20 9 -5 1 -39 -48 -65 -87 -46 -27 13 -38 38 -28 64 9 24 26 15
26 -15z m-3994 -14 c29 -33 31 -67 6 -97 l-18 -22 1 28 c0 28 -2 29 -47 32
-61 4 -63 22 -3 22 25 0 45 4 45 10 0 13 -63 23 -100 15 -21 -5 -39 -2 -57 10
-38 25 -13 36 76 33 66 -3 76 -6 97 -31z m778 -39 c-5 -17 -14 -33 -20 -35
-20 -7 -23 25 -6 68 15 38 17 40 26 20 5 -13 5 -33 0 -53z m76 -4 c0 -25 -9
-44 -33 -71 -32 -34 -34 -35 -39 -15 -4 12 -2 22 3 22 14 0 49 62 49 88 0 13
4 20 10 17 6 -3 10 -22 10 -41z m1673 -127 c-15 -12 -34 -20 -43 -19 -8 2 -12
1 -8 -4 12 -11 -28 -35 -47 -28 -10 4 -15 2 -13 -6 2 -7 -2 -14 -8 -17 -8 -3
-10 8 -7 34 6 43 13 57 13 25 0 -23 14 -29 25 -11 8 12 -13 67 -32 87 -10 10
-13 1 -16 -45 l-3 -58 -2 67 c-1 42 2 70 10 74 6 4 8 3 5 -3 -4 -6 11 -10 37
-10 29 -1 43 3 43 13 0 9 -5 10 -18 3 -24 -12 -49 -12 -49 2 0 6 5 9 12 7 7
-3 28 6 47 19 36 25 52 24 31 -2 -16 -19 -9 -28 14 -19 11 4 16 14 13 25 -3
10 0 20 7 22 7 2 12 -19 14 -65 3 -66 1 -71 -25 -91z m-2804 136 l22 -18 -41
-25 c-22 -14 -40 -30 -40 -37 0 -18 9 -16 59 12 62 36 84 32 38 -6 -20 -17
-37 -39 -37 -50 0 -16 7 -19 48 -19 26 0 64 5 86 11 25 7 42 7 48 1 11 -11
-71 -32 -125 -32 -86 0 -167 49 -167 101 0 34 39 79 68 79 11 0 29 -8 41 -17z
m380 -40 c37 -45 39 -73 8 -109 l-24 -28 -46 39 -45 38 19 31 c10 17 19 44 19
59 0 24 2 26 19 17 11 -5 33 -27 50 -47z m3995 43 c-3 -8 -13 -17 -22 -21 -13
-5 -13 -2 3 15 21 24 26 25 19 6z m-61 -33 c-7 -2 -19 -2 -25 0 -7 3 -2 5 12
5 14 0 19 -2 13 -5z m-1673 -83 c0 -38 3 -76 7 -85 5 -15 3 -16 -15 -6 -20 10
-22 20 -22 91 0 66 2 78 15 74 11 -5 15 -23 15 -74z m1769 49 c-22 -13 -31
-11 -17 5 7 8 17 12 22 9 4 -3 2 -9 -5 -14z m-2261 -14 c-3 -3 -9 2 -12 12 -6
14 -5 15 5 6 7 -7 10 -15 7 -18z m2189 -1 c-3 -3 -12 -4 -19 -1 -8 3 -5 6 6 6
11 1 17 -2 13 -5z m-7250 -40 c46 -13 95 -25 109 -26 26 -2 28 -6 16 -25 -5
-8 -21 -6 -62 8 -30 11 -55 18 -55 18 0 -6 -114 26 -137 38 -67 33 -12 28 129
-13z m2806 10 c46 -59 178 -83 272 -49 39 14 40 14 83 -22 52 -42 49 -45 -62
-75 -154 -40 -269 -12 -336 82 -21 29 -21 31 -3 60 9 16 19 30 21 30 2 0 13
-12 25 -26z m4490 2 c-22 -19 -28 -32 -28 -65 0 -27 -4 -41 -13 -41 -10 0 -12
15 -10 57 3 61 4 62 71 72 4 0 -4 -10 -20 -23z m-3444 -10 c7 -9 8 -17 2 -20
-11 -7 -378 -127 -409 -134 -12 -2 -29 2 -38 9 -15 12 12 23 202 86 121 40
222 72 225 73 4 0 12 -6 18 -14z m-1166 -58 c5 -33 -4 -48 -29 -48 -2 0 -4 26
-4 57 0 49 2 55 14 43 7 -8 16 -32 19 -52z m4702 32 c3 -5 0 -10 -9 -10 -8 0
-22 -3 -32 -7 -16 -6 -17 -5 -4 10 17 19 36 22 45 7z m-3236 -25 c34 -17 75
-64 101 -114 10 -20 52 -75 94 -121 84 -92 107 -142 88 -185 -16 -36 -28 -31
-50 18 -11 24 -36 59 -57 78 -101 92 -136 132 -170 198 -21 39 -51 81 -66 92
-16 11 -29 27 -29 35 0 19 52 19 89 -1z m-4527 -36 c-403 -183 -640 -833 -501
-1376 32 -127 102 -257 184 -340 63 -64 67 -70 33 -51 -138 78 -254 281 -294
514 -21 121 -15 399 11 513 86 384 304 684 553 761 79 25 87 13 14 -21z m7761
21 c-27 -11 -45 -43 -36 -66 4 -12 3 -15 -5 -10 -16 9 -15 59 0 74 7 7 23 12
38 11 24 0 24 -1 3 -9z m50 -28 c31 -34 48 -95 54 -186 6 -86 8 -93 38 -121
28 -27 201 -141 687 -452 76 -48 138 -90 138 -93 0 -3 -11 -18 -24 -34 l-23
-30 -219 139 c-346 220 -556 358 -597 395 -54 47 -68 82 -74 174 -3 59 -11 97
-31 139 -26 58 -26 59 -7 73 25 19 39 18 58 -4z m-7763 -7 c19 -23 1 -39 -21
-19 -10 9 -16 21 -13 25 8 13 20 11 34 -6z m4436 -27 c11 -12 27 -39 34 -58 7
-19 29 -54 47 -77 l34 -43 -25 0 c-30 0 -62 -38 -78 -94 -6 -22 -22 -57 -35
-76 -39 -59 -24 -139 31 -160 18 -7 16 -9 -17 -15 -20 -4 -57 -4 -82 0 l-46 6
34 62 c18 34 49 86 67 115 26 41 35 67 38 113 4 54 1 65 -27 110 -25 40 -31
61 -31 105 0 49 2 54 18 45 9 -5 26 -20 38 -33z m-4251 21 c-141 -20 -313
-143 -423 -302 -156 -226 -233 -488 -233 -792 1 -247 57 -443 173 -605 l39
-55 -43 47 c-269 293 -275 920 -11 1361 56 94 195 241 268 283 76 44 172 74
235 73 l55 -1 -60 -9z m2901 -44 c50 -34 126 -55 198 -55 60 0 197 29 236 50
14 8 25 7 40 -2 11 -7 20 -16 20 -19 0 -13 -54 -29 -146 -45 -131 -22 -292
-16 -350 14 -49 25 -68 47 -60 67 8 21 19 19 62 -10z m1252 -47 c2 -49 -1 -68
-13 -78 -13 -11 -15 -3 -15 70 0 61 3 81 13 78 7 -3 13 -29 15 -70z m1622 63
c0 -17 -29 -39 -65 -51 -65 -22 -91 13 -32 43 35 17 97 22 97 8z m-6076 -40
c12 -13 14 -21 6 -26 -11 -7 -50 21 -50 37 0 15 27 8 44 -11z m4348 -53 c3
-79 -2 -90 -51 -107 -45 -15 -51 -14 -51 6 0 27 51 147 68 161 27 21 30 15 34
-60z m-1293 30 c17 -43 55 -70 159 -109 23 -9 23 -9 5 -39 -9 -16 -24 -30 -32
-30 -14 0 -121 58 -154 84 -29 22 -40 76 -20 98 21 24 32 23 42 -4z m-2264
-14 c14 -6 14 -9 -5 -29 -42 -45 -47 -119 -13 -195 26 -56 27 -110 4 -200 -11
-46 -21 -98 -21 -115 0 -55 30 -122 79 -178 32 -37 52 -70 60 -103 7 -27 17
-66 22 -86 5 -21 19 -47 31 -58 26 -24 9 -26 -37 -4 -38 17 -65 72 -65 129 0
55 -15 80 -93 157 -60 59 -76 82 -85 120 -17 68 -15 88 18 178 37 99 37 129 4
209 -29 73 -26 111 14 154 25 26 54 33 87 21z m2213 -87 c15 -16 61 -47 102
-69 41 -22 81 -48 88 -56 14 -18 17 -189 3 -211 -7 -12 -17 -12 -57 -2 -68 17
-125 52 -174 108 l-42 48 7 110 c5 76 12 118 23 135 l17 25 3 -30 c2 -16 16
-43 30 -58z m1232 70 c0 -1 -9 -20 -20 -42 -11 -22 -20 -49 -20 -60 0 -40 -49
-72 -201 -131 -122 -47 -121 -48 -117 32 l3 66 165 68 c150 61 190 76 190 67z
m-3347 -37 c26 -16 47 -31 47 -33 0 -2 -15 -1 -33 1 -49 6 -87 -28 -87 -79 0
-53 30 -83 73 -75 18 4 47 10 65 13 22 3 36 13 42 27 9 24 -4 56 -24 56 -8 0
-16 10 -19 21 -6 21 -5 21 18 -1 13 -13 45 -49 70 -81 l46 -58 -44 19 c-32 14
-52 17 -73 11 -49 -14 -92 -39 -129 -77 l-35 -35 0 43 c0 24 -9 63 -20 87 -26
55 -25 117 0 159 24 40 43 40 103 2z m3632 0 c22 -43 19 -125 -7 -171 -21 -38
-42 -54 -59 -43 -15 9 -10 79 10 136 11 29 22 65 26 81 7 34 11 34 30 -3z
m-4631 -5 c15 -12 17 -18 8 -27 -9 -9 -16 -7 -32 7 -36 33 -15 50 24 20z
m5206 -52 c16 4 20 0 20 -20 0 -14 16 -61 36 -106 34 -77 37 -89 36 -182 0
-101 -18 -192 -46 -231 -21 -29 -24 -16 -15 66 18 153 15 193 -16 251 -15 30
-36 79 -45 109 l-17 55 -17 -40 c-72 -168 -91 -362 -48 -506 41 -140 28 -179
-60 -187 -61 -5 -108 12 -89 31 6 6 11 42 11 79 0 80 8 84 68 32 48 -41 51
-36 26 60 -13 47 -15 92 -11 201 5 149 22 226 74 330 35 70 43 78 59 64 8 -6
23 -9 34 -6z m-1520 -5 c0 -7 -9 -28 -20 -45 l-20 -33 -135 0 c-126 0 -135 1
-126 18 23 44 48 55 123 54 40 0 93 3 118 7 25 5 48 9 53 10 4 0 7 -5 7 -11z
m1157 -34 c55 -41 83 -87 93 -150 15 -91 12 -524 -3 -552 -19 -33 -157 -134
-174 -128 -8 4 -23 6 -34 6 -12 0 -19 7 -19 18 0 10 -45 62 -100 115 -56 55
-94 100 -87 102 6 2 54 16 106 30 155 43 185 68 197 161 6 48 3 60 -15 84 -31
43 -27 81 14 130 19 23 35 46 35 50 0 5 -11 22 -24 37 -22 25 -30 28 -85 27
-69 -1 -70 1 -41 65 20 44 20 44 62 37 23 -4 57 -18 75 -32z m-3789 -27 c3
-28 2 -29 -30 -22 -41 9 -52 19 -44 40 4 11 16 15 38 13 28 -3 34 -7 36 -31z
m4045 16 c-3 -10 -9 -22 -13 -28 -5 -5 -20 -48 -35 -95 -42 -134 -46 -357 -7
-459 4 -11 -5 -7 -26 11 -17 14 -36 28 -41 30 -5 1 -11 87 -12 195 -4 189 -3
193 18 208 12 9 25 30 28 49 5 22 16 38 36 50 16 9 34 26 39 37 13 24 22 25
13 2z m-5173 -30 c0 -7 -6 -13 -12 -13 -21 1 -51 28 -44 39 9 14 56 -8 56 -26z
m1170 1 c0 -15 -6 -24 -15 -24 -15 0 -21 40 -9 53 12 11 24 -3 24 -29z m2810
-54 c0 -67 5 -63 -100 -79 -63 -10 -80 -2 -80 38 0 43 21 61 95 81 39 10 73
19 78 19 4 1 7 -26 7 -59z m510 -7 c-1 -44 -4 -50 -36 -71 l-36 -22 -20 25
c-11 14 -34 31 -50 38 l-31 13 79 31 c43 17 82 31 87 32 4 0 7 -20 7 -46z
m-780 28 c23 -6 25 -12 28 -66 5 -115 -40 -150 -191 -149 -113 0 -117 3 -116
79 0 91 11 128 39 136 32 9 208 9 240 0z m1560 -95 l41 -84 -11 -122 c-13
-144 -18 -160 -61 -191 -31 -22 -32 -22 -45 -4 -17 23 -17 25 1 66 12 29 14
31 15 11 0 -38 24 -20 32 24 3 21 12 75 18 119 7 44 16 85 22 92 5 7 7 17 3
23 -11 18 -45 -19 -46 -49 -1 -17 -4 -11 -10 18 -5 24 -15 54 -23 66 -14 21
-14 28 0 69 9 25 17 46 19 46 2 0 23 -38 45 -84z m-4097 63 c-43 -12 -100 -71
-127 -128 -17 -37 -21 -65 -20 -146 0 -118 16 -160 72 -193 35 -20 36 -22 11
-22 -38 0 -103 52 -128 102 -44 92 -18 252 53 323 49 48 100 75 141 74 l30 -1
-32 -9z m97 -28 c20 -11 44 -36 58 -62 21 -38 23 -54 20 -124 -7 -125 -69
-232 -149 -257 -32 -9 -44 -8 -82 11 -60 29 -78 73 -78 193 0 102 18 153 71
207 55 55 101 64 160 32z m3102 -38 c17 -15 34 -70 25 -80 -3 -3 -13 10 -22
27 -14 28 -21 31 -46 26 -54 -11 -84 25 -36 44 26 10 55 4 79 -17z m426 15
c16 -16 15 -43 -3 -58 -13 -10 -19 -10 -35 5 -25 22 -25 41 -2 54 22 13 26 13
40 -1z m-4903 -10 c26 -12 32 -23 16 -33 -11 -6 -61 14 -61 25 0 7 11 20 16
20 2 0 15 -5 29 -12z m7280 -53 c24 -25 34 -68 16 -79 -5 -3 -11 7 -14 23 -4
16 -19 41 -34 55 -22 20 -24 26 -11 26 9 0 29 -11 43 -25z m-42 -13 c40 -44
38 -102 -3 -102 -18 0 -18 1 -2 29 14 24 14 31 3 45 -7 9 -25 16 -38 16 -22 0
-24 2 -13 15 16 20 33 19 53 -3z m-3913 -27 c31 -32 33 -37 19 -51 -18 -18
-109 -47 -109 -35 0 5 10 11 23 14 12 4 31 13 42 21 20 14 20 15 -3 45 -39 54
-22 58 28 6z m1973 -95 c-6 -64 -15 -116 -22 -123 -11 -10 -12 10 -8 103 5
121 12 159 30 141 7 -7 7 -46 0 -121z m-1063 53 c0 -27 -2 -28 -40 -8 -21 11
-30 23 -30 40 l0 25 35 -17 c25 -12 35 -23 35 -40z m-250 27 c24 -24 26 -75 8
-162 -10 -48 -16 -60 -36 -65 -30 -7 -33 -3 -35 46 -1 35 4 46 31 71 25 22 32
37 32 65 0 22 -4 34 -10 30 -5 -3 -10 -15 -10 -26 0 -11 -16 -34 -35 -52 -31
-29 -34 -38 -37 -92 -3 -54 -5 -60 -25 -63 -21 -3 -23 1 -23 39 0 24 -9 62
-21 86 -33 68 -25 83 56 115 85 33 80 33 105 8z m504 -2 c20 -28 21 -44 2 -28
-23 18 -59 8 -76 -22 -12 -23 -13 -31 -2 -48 12 -20 11 -20 -8 -10 -33 17 -27
72 11 104 37 32 53 33 73 4z m2733 6 c10 -28 -7 -43 -117 -100 -146 -77 -170
-93 -170 -112 0 -17 27 -37 519 -383 129 -90 252 -181 273 -202 70 -72 58
-142 -35 -201 -29 -18 -146 -81 -262 -141 -115 -59 -246 -127 -291 -151 l-81
-43 -22 30 c-13 17 -21 32 -19 33 1 2 53 29 113 61 61 32 128 68 150 80 22 12
119 63 216 114 96 51 181 101 187 112 9 14 9 25 2 38 -10 19 -131 110 -395
296 -362 256 -435 315 -435 352 0 37 65 96 170 156 137 77 185 92 197 61z
m-2288 -19 c-18 -18 -120 -55 -152 -55 -21 0 -47 16 -47 30 0 3 26 5 58 6 34
0 75 9 102 21 49 22 62 21 39 -2z m-4554 -22 c-3 -16 -13 -34 -20 -42 -23 -23
-30 12 -10 43 23 34 39 33 30 -1z m215 -37 c0 -35 -21 -62 -40 -51 -15 9 -12
47 6 73 20 29 34 20 34 -22z m4075 13 c34 -30 35 -34 35 -98 0 -69 10 -91 42
-91 10 0 18 -4 18 -10 0 -13 -21 -13 -54 0 -24 9 -26 14 -26 77 0 66 -1 68
-42 110 -50 51 -29 61 27 12z m-171 -6 c34 -42 45 -66 46 -96 0 -43 -15 -66
-96 -142 -71 -68 -74 -73 -74 -117 0 -53 -17 -73 -56 -64 -26 7 -26 8 -22 83
l4 76 82 76 c87 80 98 104 62 136 -19 18 -27 55 -13 68 14 15 46 6 67 -20z
m124 -9 c40 -34 42 -38 42 -94 0 -74 6 -89 43 -105 29 -12 29 -12 -39 -29
l-68 -17 -35 35 c-31 32 -34 39 -23 56 14 24 16 116 2 125 -15 9 -12 31 6 49
21 22 25 21 72 -20z m332 -54 c-8 -29 -20 -47 -43 -60 -44 -27 -47 -26 -31 18
7 20 13 45 14 55 0 11 15 33 33 49 l32 31 3 -26 c2 -14 -2 -44 -8 -67z m-5026
70 c14 -5 26 -16 26 -24 0 -12 -6 -13 -30 -5 -16 6 -30 17 -30 25 0 17 1 17
34 4z m9733 -12 c11 -13 26 -33 32 -45 11 -22 10 -23 -23 -23 -29 0 -38 5 -51
31 -13 24 -14 34 -4 45 16 19 22 18 46 -8z m95 11 c17 -9 54 -76 46 -84 -2 -2
-15 -1 -29 2 -17 3 -32 16 -43 39 -26 55 -18 67 26 43z m-5430 -60 c7 -5 22
-6 34 -3 42 11 72 -49 39 -76 -37 -30 -106 43 -104 110 l1 35 8 -29 c5 -16 15
-33 22 -37z m1005 39 c-3 -8 -6 -5 -6 6 -1 11 2 17 5 13 3 -3 4 -12 1 -19z
m-357 -81 c-7 -25 -22 -45 -43 -57 -35 -22 -136 -54 -144 -46 -2 2 26 19 64
36 90 43 111 63 120 119 7 40 8 42 11 16 2 -16 -1 -47 -8 -68z m4897 71 c26
-29 46 -68 39 -75 -10 -10 -57 27 -66 53 -19 49 -7 59 27 22z m-6090 -10 c14
-11 35 -79 28 -86 -2 -3 -9 7 -14 21 -13 33 -28 42 -68 38 -27 -2 -33 1 -33
18 0 30 54 36 87 9z m5777 6 c19 -18 39 -54 34 -59 -2 -2 -16 -5 -32 -7 -23
-2 -33 3 -45 23 -26 46 7 79 43 43z m-6137 -67 c88 -59 109 -77 111 -100 2
-15 0 -27 -5 -27 -18 0 -228 166 -231 183 -2 9 1 17 7 17 6 0 59 -33 118 -73z
m842 -21 c19 -20 50 -41 69 -47 l34 -11 -30 -32 c-35 -37 -52 -67 -52 -95 0
-11 -13 -34 -30 -51 -23 -24 -30 -40 -30 -70 l0 -40 -20 20 c-24 24 -76 26
-107 5 -13 -9 -24 -31 -28 -55 -8 -47 -32 -100 -46 -100 -5 0 -9 42 -9 93 0
127 -18 176 -90 249 l-56 56 64 18 c40 10 70 14 77 8 57 -43 64 -45 101 -38
21 4 49 18 62 31 20 20 23 31 19 63 -3 21 -3 41 0 44 9 8 35 -9 72 -48z m5212
25 c37 -37 37 -48 -2 -53 -24 -4 -34 1 -50 24 -17 23 -18 32 -9 43 18 21 28
19 61 -14z m-4697 -16 c49 -38 55 -49 30 -59 -28 -11 -62 -6 -79 10 -15 15
-19 84 -4 84 3 0 27 -16 53 -35z m543 3 c-3 -7 -5 -2 -5 12 0 14 2 19 5 13 2
-7 2 -19 0 -25z m-4903 -7 c26 -28 41 -118 27 -166 -22 -79 -81 -145 -116
-131 -9 3 -22 21 -30 41 -31 73 -11 177 45 236 42 44 50 46 74 20z m2721 -11
c-35 -39 0 -145 69 -210 23 -21 30 -22 46 -12 27 16 35 15 20 -3 -62 -75 -211
135 -156 220 9 14 22 25 28 25 6 0 3 -9 -7 -20z m6265 -37 l22 -28 -32 -8
c-21 -5 -37 -4 -45 3 -36 30 -23 90 15 70 10 -5 28 -22 40 -37z m-9504 27 c35
-14 18 -34 -20 -24 -26 6 -32 15 -19 27 8 9 7 9 39 -3z m3892 -7 c2 -8 -5 -13
-15 -13 -11 0 -24 -5 -31 -12 -15 -15 -15 -61 0 -76 14 -14 4 -27 -16 -19 -33
13 -32 89 0 122 18 18 55 17 62 -2z m-523 -45 c10 -25 10 -35 2 -40 -23 -14
-44 -8 -55 17 -10 21 -8 27 11 40 28 19 26 20 42 -17z m581 -21 c131 -97 156
-154 152 -348 -3 -121 -4 -124 -26 -127 -45 -7 -52 11 -52 142 -1 71 -6 132
-13 149 -12 28 -134 157 -149 157 -13 0 -9 58 5 63 21 9 23 8 83 -36z m708
-22 l27 -35 -32 -27 c-39 -33 -89 -109 -90 -137 0 -13 -5 -7 -10 14 -6 19 -24
47 -42 63 l-32 27 70 65 c38 36 72 65 76 65 4 0 19 -16 33 -35z m-915 -39 c9
-11 23 -15 36 -12 28 7 58 -24 53 -56 -7 -53 -85 -19 -113 49 -8 20 -15 47
-14 62 l1 26 11 -26 c7 -14 18 -34 26 -43z m5673 47 c25 -22 23 -33 -7 -33
-14 0 -28 -7 -31 -15 -5 -12 -10 -13 -20 -4 -15 12 -19 51 -7 62 12 12 46 7
65 -10z m-7952 -78 c-4 -44 -8 -69 -8 -56 -3 34 -30 61 -62 61 -26 0 -56 -25
-78 -65 -11 -19 -11 -19 -12 5 -1 14 -7 41 -14 61 l-12 35 38 -10 c35 -9 45
-7 96 20 31 16 57 30 58 29 1 0 -2 -36 -6 -80z m-1486 39 c9 -3 16 -13 16 -21
0 -10 -6 -13 -16 -9 -9 3 -22 6 -30 6 -8 0 -14 7 -14 15 0 16 17 19 44 9z
m4848 -54 l53 -49 -30 -1 c-17 0 -35 -4 -41 -10 -7 -7 -23 3 -49 30 -45 46
-33 55 15 10 18 -17 35 -29 37 -27 7 8 -67 67 -83 67 -25 0 -73 -38 -90 -71
-17 -33 -19 -30 59 -121 37 -45 37 -46 22 -81 -15 -37 -44 -54 -69 -40 -27 15
-86 102 -86 126 0 64 58 164 115 199 52 31 87 24 147 -32z m5193 18 c97 -50
172 -152 210 -288 29 -100 25 -286 -8 -410 -47 -182 -127 -320 -250 -437 -168
-160 -382 -200 -486 -91 -204 211 -182 694 45 1014 56 79 167 181 235 217 48
26 62 28 129 24 55 -3 88 -11 125 -29z m-9275 -17 c0 -33 -23 -67 -38 -57 -17
10 -15 48 4 74 19 27 34 20 34 -17z m8593 -29 c-15 -2 -35 -10 -44 -18 -12
-11 -18 -11 -27 -2 -18 18 -15 39 10 65 l22 23 34 -32 33 -33 -28 -3z m-4589
-11 c33 -34 37 -43 30 -65 l-9 -27 -49 50 c-42 43 -47 52 -36 66 18 21 21 20
64 -24z m-3689 -41 c-4 -23 -9 -39 -11 -37 -3 2 -2 23 2 46 4 23 9 40 11 37 3
-3 2 -23 -2 -46z m3475 -17 c0 -77 -141 -97 -187 -26 -13 20 -14 28 -3 48 18
34 30 31 30 -5 0 -24 6 -33 26 -40 51 -20 94 8 94 61 0 21 1 22 20 4 11 -10
20 -29 20 -42z m217 -73 c-13 -34 -20 -30 -79 43 -32 41 -36 52 -27 69 10 19
14 18 64 -32 49 -49 52 -54 42 -80z m4518 58 c28 -21 28 -22 6 -30 -25 -9 -71
16 -71 38 0 21 34 17 65 -8z m-9287 -5 c2 -9 -7 -13 -27 -13 -30 0 -39 9 -24
24 11 10 46 3 51 -11z m1401 -38 c5 3 12 1 16 -5 3 -5 0 -10 -8 -10 -17 0 -67
38 -67 50 0 5 11 -2 25 -16 14 -14 29 -23 34 -19z m2902 25 c49 -27 -8 -82
-63 -61 -39 15 -45 32 -18 53 25 20 52 23 81 8z m677 -7 c2 -9 -7 -13 -26 -13
-33 0 -47 -13 -57 -53 -5 -20 -2 -33 9 -46 20 -23 4 -40 -19 -21 -21 18 -18
79 5 118 17 28 25 33 52 30 17 -2 33 -9 36 -15z m-27 -49 c-12 -15 -21 -35
-21 -46 0 -11 -4 -16 -10 -13 -14 9 -13 58 2 73 7 7 20 12 31 12 18 0 17 -1
-2 -26z m-693 -24 c18 0 42 5 53 10 14 8 19 7 19 -3 0 -24 -23 -37 -65 -37
-43 0 -65 13 -65 39 0 12 3 12 12 3 7 -7 27 -12 46 -12z m738 6 c7 -19 -13
-56 -31 -56 -20 0 -27 15 -19 45 7 27 41 35 50 11z m198 -16 c67 -59 66 -53
66 -513 l0 -414 53 -51 c59 -58 283 -246 388 -327 77 -60 107 -67 157 -38 25
14 32 15 46 4 9 -7 16 -21 16 -30 0 -17 -73 -66 -114 -77 -31 -7 -89 18 -145
64 -108 87 -428 362 -454 389 l-28 30 9 398 c4 219 5 419 1 444 -9 59 -48 95
-95 88 -51 -8 -75 30 -31 51 44 21 94 14 131 -18z m-600 -5 c9 -14 14 -30 11
-36 -8 -13 -121 -69 -139 -69 -8 0 -23 16 -35 35 l-20 35 42 0 c42 0 107 30
107 50 0 18 17 10 34 -15z m4629 -2 c31 -16 32 -16 9 -26 -27 -12 -72 5 -72
28 0 20 23 19 63 -2z m-8643 -26 c0 -21 -8 -41 -20 -52 -18 -17 -19 -16 -25 7
-8 31 10 78 30 78 10 0 15 -10 15 -33z m3679 -7 c16 0 42 5 57 10 40 16 57 -5
25 -31 -51 -42 -186 -13 -168 36 7 16 9 16 32 1 13 -9 38 -16 54 -16z m175
-62 c16 -25 15 -28 -5 -47 -23 -22 -170 -101 -187 -101 -11 0 -36 36 -45 65
-6 19 -3 20 56 20 36 0 75 6 92 15 36 18 54 62 37 90 -7 11 -12 25 -12 32 0
14 38 -30 64 -74z m-4436 50 c-7 -20 -48 -23 -48 -4 0 11 9 16 26 16 16 0 24
-5 22 -12z m4992 -13 c-7 -9 -15 -13 -18 -10 -3 2 1 11 8 20 7 9 15 13 18 10
3 -2 -1 -11 -8 -20z m-741 -33 c33 -3 60 1 82 12 40 20 39 20 39 -2 0 -28 -33
-53 -79 -59 -62 -8 -86 2 -109 48 -19 38 -19 40 -1 23 10 -9 41 -19 68 -22z
m-83 -38 c-4 -15 -23 -43 -42 -61 -29 -27 -44 -33 -78 -33 -49 0 -66 13 -66
51 0 30 39 87 40 57 0 -20 37 -48 64 -48 30 0 56 30 56 64 0 28 1 29 16 14 12
-12 15 -25 10 -44z m793 -20 c-22 -27 -51 -38 -60 -23 -15 24 -10 35 24 51 27
13 33 13 40 1 5 -8 4 -20 -4 -29z m4206 -8 c18 -13 17 -15 -23 -27 -48 -14
-58 -9 -42 20 12 24 38 27 65 7z m-9135 -61 c0 -9 -9 -15 -25 -15 -16 0 -25 6
-25 15 0 9 9 15 25 15 16 0 25 -6 25 -15z m4189 -29 c22 -40 5 -63 -73 -101
-117 -56 -121 -56 -190 13 l-59 60 33 17 c32 17 33 16 64 -13 38 -36 71 -45
122 -31 47 13 74 35 74 61 0 25 14 23 29 -6z m-375 -203 c-7 -12 -29 -51 -48
-85 l-34 -63 14 -65 c7 -36 14 -93 14 -127 0 -55 -2 -61 -19 -56 -16 4 -17 9
-8 34 12 31 -1 116 -25 167 -14 29 -39 34 -105 19 l-33 -6 0 85 c0 92 8 114
78 224 l35 55 73 -80 c69 -76 72 -81 58 -102z m74 64 c34 -27 62 -50 62 -51 0
-2 -24 1 -52 7 -60 11 -70 18 -141 101 l-51 59 59 -34 c33 -18 88 -55 123 -82z
m5201 94 c10 -6 5 -13 -19 -25 -41 -20 -40 -20 -40 2 0 32 28 42 59 23z
m-5170 -53 c45 -47 63 -78 45 -78 -6 0 -124 91 -124 96 0 11 14 34 20 34 5 0
31 -24 59 -52z m-3871 -26 c2 -7 -6 -12 -17 -12 -21 0 -27 11 -14 24 9 9 26 2
31 -12z m6828 3 c43 -18 40 -39 -6 -43 -30 -3 -32 -2 -21 12 12 14 8 16 -30
15 -24 0 -38 -3 -31 -6 16 -6 16 -23 -1 -23 -19 0 -53 27 -45 35 7 7 60 22 86
24 7 1 29 -6 48 -14z m-46 -89 c52 0 86 5 110 17 27 14 30 14 15 2 -57 -45
-201 -46 -260 0 -16 12 -12 11 20 -2 25 -10 68 -17 115 -17z m2228 -2 c-16 -8
-28 -21 -28 -28 0 -8 12 -24 28 -35 l27 -20 -25 -1 c-33 0 -50 17 -50 50 0 33
17 50 50 50 l25 -1 -27 -15z m-2299 -91 c30 -74 33 -92 13 -79 -13 8 -51 91
-59 127 -11 55 15 29 46 -48z m127 30 c-3 -21 -8 -59 -11 -85 -5 -39 -10 -48
-26 -48 -16 0 -19 7 -19 48 0 26 3 64 6 85 6 31 11 37 31 37 23 0 24 -3 19
-37z m50 -4 c-8 -48 -34 -115 -42 -106 -9 9 27 147 39 147 6 0 7 -16 3 -41z
m-6819 5 c-9 -9 -28 6 -21 18 4 6 10 6 17 -1 6 -6 8 -13 4 -17z m4320 -20 c14
-21 13 -22 -30 -17 -36 4 -48 1 -72 -20 -24 -21 -29 -33 -30 -71 0 -48 -3 -54
-23 -34 -17 17 -15 63 3 99 33 63 122 88 152 43z m-1807 -22 c19 -14 36 -26
38 -27 1 -1 -10 -21 -25 -44 l-27 -41 -23 22 c-41 38 -47 16 -52 -183 -3 -191
-7 -203 -50 -179 -20 10 -21 18 -21 208 0 168 3 202 18 232 28 56 77 60 142
12z m1828 -30 c15 -19 9 -66 -11 -90 -18 -22 -76 -44 -98 -37 -38 12 -46 84
-15 124 26 33 98 35 124 3z m-1741 -23 c8 -8 2 -23 -23 -56 -19 -24 -34 -49
-34 -54 0 -6 -8 -5 -20 1 -19 10 -19 13 -5 47 27 64 57 87 82 62z m39 -51
c-21 -20 -44 -53 -55 -82 -16 -42 -20 -46 -25 -29 -15 46 51 143 95 143 20 0
18 -3 -15 -32z m4226 -8 l36 -27 -64 -31 -65 -32 22 29 c17 24 19 32 9 51 -14
26 -6 55 12 44 7 -4 29 -20 50 -34z m-4033 -51 c30 -23 56 -50 59 -61 3 -12 7
-15 11 -9 4 6 45 -22 101 -71 l94 -83 -35 -10 c-67 -19 -99 -64 -99 -140 0
-25 -3 -45 -7 -45 -10 0 -239 188 -304 249 -53 51 -59 61 -59 96 0 59 44 124
100 146 20 8 73 -19 139 -72z m642 68 c27 -21 49 -74 49 -120 0 -51 -13 -67
-55 -67 l-30 0 38 22 c45 27 50 66 12 103 -27 28 -37 30 -66 15 -16 -9 -19 -7
-19 9 0 11 10 27 22 35 27 19 28 19 49 3z m5545 -12 c17 -14 15 -15 -35 -13
-33 2 -56 8 -59 16 -6 18 69 16 94 -3z m-2034 -22 c24 -28 28 -51 12 -63 -12
-10 -15 -7 -20 19 -4 17 -11 34 -15 37 -11 7 -12 24 -1 24 5 0 16 -8 24 -17z
m-382 -18 c0 -35 32 -64 81 -71 l42 -7 -44 -23 c-24 -13 -51 -23 -59 -24 -15
0 -130 72 -133 84 -2 7 90 63 106 65 4 1 7 -10 7 -24z m345 1 c18 -28 17 -77
-2 -84 -9 -2 -13 8 -13 33 0 20 -5 45 -10 56 -16 28 6 24 25 -5z m-3473 -23
c34 -30 22 -55 -52 -102 -37 -24 -73 -53 -78 -65 -6 -11 -15 -86 -21 -164 -14
-173 -27 -212 -71 -212 -23 0 -44 12 -82 47 -57 54 -73 85 -58 114 15 27 31
24 70 -16 57 -58 60 -52 60 105 0 193 7 206 144 281 60 34 64 34 88 12z m3436
-95 l-3 -101 -38 -20 c-35 -18 -39 -18 -62 -3 -24 16 -24 16 -19 -11 5 -26 1
-30 -67 -63 -40 -19 -76 -36 -81 -38 -4 -2 -8 44 -8 102 l0 107 131 64 c72 36
136 65 141 65 5 0 7 -45 6 -102z m-3088 -20 l0 -40 -32 19 c-41 24 -44 35 -10
54 36 21 42 16 42 -33z m5194 45 c38 -6 38 -6 15 -19 -34 -19 -57 -17 -69 6
-12 23 -8 24 54 13z m-7224 -81 c-22 -22 -40 -47 -40 -56 0 -9 -4 -14 -10 -11
-17 11 -11 60 10 83 13 13 33 22 51 22 l30 0 -41 -38z m70 -7 c0 -8 -8 -15
-18 -15 -26 0 -42 -20 -42 -53 0 -22 -4 -28 -17 -25 -25 5 -20 54 8 84 25 27
69 32 69 9z m4672 -25 c19 -39 23 -96 8 -105 -6 -4 -10 8 -10 29 0 42 -12 77
-36 101 -17 16 -17 17 2 13 10 -2 27 -19 36 -38z m-38 -2 c7 -13 16 -36 20
-53 5 -29 5 -29 -5 -5 -21 49 -26 55 -48 58 -12 2 -19 8 -16 13 11 16 34 10
49 -13z m2579 -5 c-20 -10 -38 -13 -50 -8 -15 7 -12 10 17 15 57 12 67 10 33
-7z m-7102 -75 c162 -142 150 -126 136 -179 -7 -25 -16 -46 -20 -48 -12 -3
-265 238 -272 261 -4 10 -1 25 5 33 25 30 57 16 151 -67z m4511 48 c6 -14 8
-32 5 -40 -6 -14 -87 -71 -91 -64 -1 2 -20 42 -33 70 -4 7 83 57 100 58 4 0
12 -11 19 -24z m-3360 -33 c31 -37 30 -42 -5 -36 -76 12 -140 -66 -102 -123
20 -31 15 -39 -20 -30 -23 6 -25 11 -25 62 0 68 21 111 63 129 44 19 71 18 89
-2z m3086 3 c56 -29 88 -78 97 -152 l7 -49 -92 -54 c-73 -42 -94 -50 -101 -40
-7 11 -9 9 -9 -6 0 -14 -18 -30 -60 -53 l-60 -33 0 51 c0 68 -19 108 -73 156
l-45 40 91 49 c51 27 115 62 142 77 59 31 67 32 103 14z m156 -45 c18 -38 16
-78 -2 -67 -5 3 -15 23 -22 46 -7 22 -19 45 -27 51 -7 6 -10 15 -7 20 10 17
40 -9 58 -50z m-83 39 c10 -6 26 -24 35 -41 19 -38 29 -109 14 -109 -5 0 -10
9 -10 20 0 35 -29 94 -58 117 -28 23 -16 31 19 13z m2825 -18 c-8 -8 -22 -12
-30 -9 -26 10 -18 24 14 24 27 0 29 -2 16 -15z m-6655 -48 c-13 -30 -41 -31
-69 -1 l-22 24 29 -5 c22 -3 33 1 43 17 11 18 14 19 21 5 6 -10 5 -26 -2 -40z
m-106 36 c3 -5 1 -10 -4 -10 -6 0 -11 5 -11 10 0 6 2 10 4 10 3 0 8 -4 11 -10z
m773 -27 c-32 -5 -78 -55 -78 -86 0 -18 -2 -19 -10 -7 -30 46 11 101 74 99 30
-2 33 -3 14 -6z m-798 -45 c0 -55 22 -78 74 -78 23 0 47 4 55 9 15 10 74 -26
66 -39 -2 -4 -30 -15 -62 -24 l-59 -18 -79 82 c-44 45 -81 85 -83 90 -2 5 12
10 30 13 18 2 39 5 46 5 8 1 12 -12 12 -40z m67 16 c-7 -7 -37 7 -37 17 0 6 9
5 21 -1 11 -7 19 -14 16 -16z m763 1 l25 -14 -30 -1 c-17 0 -36 -5 -43 -12
-17 -17 -15 -68 5 -90 22 -25 -2 -23 -27 2 -30 30 -27 83 6 109 31 25 32 25
64 6z m6040 -5 c-29 -23 -41 -25 -58 -8 -21 21 -13 28 36 28 l47 0 -25 -20z
m54 -72 c-7 -11 -32 -10 -39 2 -11 18 5 30 25 18 10 -7 16 -16 14 -20z m108
-40 c-12 -12 -44 -7 -49 8 -2 7 8 9 27 6 21 -3 28 -8 22 -14z m-7169 -85 c-3
-29 -10 -50 -15 -47 -9 6 -2 79 9 97 9 16 11 2 6 -50z m361 45 c3 -7 7 -45 10
-85 l5 -71 -27 14 c-38 20 -75 17 -106 -7 l-26 -20 0 69 0 70 43 16 c85 30 96
32 101 14z m3259 -19 c44 -34 64 -145 28 -157 -9 -3 -11 0 -6 7 22 36 -36 141
-77 141 -17 0 -18 3 -8 15 17 20 32 19 63 -6z m-43 -32 c29 -22 50 -61 50 -92
0 -38 -16 -55 -49 -55 l-26 1 23 18 c30 26 29 66 -2 86 -19 13 -29 14 -45 5
-25 -13 -27 -3 -5 28 17 25 32 27 54 9z m-3205 -147 c3 -6 -4 -10 -17 -10 -33
0 -65 -25 -88 -68 -12 -23 -19 -30 -20 -19 0 33 29 87 52 97 31 12 65 12 73 0z
m23 -36 c14 -10 22 -25 22 -45 0 -29 0 -29 -24 -13 -54 35 -101 -12 -71 -70
12 -22 12 -26 0 -26 -21 0 -45 40 -45 75 0 32 22 65 55 83 27 15 37 15 63 -4z
m252 -300 l281 -246 -18 -31 c-10 -16 -21 -30 -24 -31 -14 -2 -559 490 -559
506 0 27 11 48 26 48 7 0 139 -111 294 -246z m-406 200 c4 -15 2 -24 -9 -28
-12 -4 -15 2 -15 31 0 38 12 36 24 -3z m1964 -356 c19 -19 14 -28 -13 -28 -31
0 -75 -44 -75 -74 0 -16 13 -29 43 -44 23 -13 33 -20 22 -17 -11 4 -40 11 -65
18 -25 6 -47 12 -48 13 -2 1 5 23 17 48 34 79 87 116 119 84z m268 -170 c-13
-18 -16 -53 -16 -175 0 -83 -4 -163 -10 -178 -10 -25 -10 -25 -41 -10 -22 12
-29 21 -24 33 17 43 35 131 41 191 7 92 11 104 35 134 25 33 36 36 15 5z m98
1 c34 -27 34 -59 -4 -153 -24 -60 -90 -287 -90 -310 0 -3 39 -50 86 -103 100
-113 138 -186 155 -293 14 -88 6 -292 -15 -420 -8 -47 -12 -87 -10 -89 2 -3
44 -7 92 -9 105 -5 122 -13 122 -53 0 -39 -26 -89 -46 -89 -9 0 -61 17 -116
37 -99 37 -100 37 -95 68 3 16 14 91 26 165 27 174 27 312 1 414 -25 97 -60
160 -147 260 -104 119 -97 102 -73 200 16 69 20 112 18 214 -3 108 0 132 15
155 21 32 45 34 81 6z m-1499 -29 c10 -11 13 -20 7 -20 -21 0 -52 -39 -52 -65
0 -27 -9 -32 -28 -13 -15 15 -15 60 0 93 14 31 48 33 73 5z m803 -14 c10 -23
7 -36 -8 -36 -6 0 -30 44 -30 55 0 16 29 1 38 -19z m-656 -127 c41 -21 139
-26 184 -9 22 9 18 2 -27 -49 -53 -59 -55 -60 -109 -60 -57 -1 -120 26 -120
51 0 6 -3 8 -7 4 -4 -3 -28 15 -55 41 -53 52 -60 81 -27 112 l22 20 50 -45
c28 -25 68 -54 89 -65z m652 66 c-294 -147 -539 -478 -615 -835 -20 -92 -23
-135 -23 -340 -1 -241 3 -277 46 -425 39 -134 114 -263 196 -336 26 -23 38
-37 27 -31 -124 65 -236 262 -286 504 -42 205 -24 555 38 753 102 324 381 640
652 740 67 25 56 15 -35 -30z m453 13 c-3 -7 -5 -2 -5 12 0 14 2 19 5 13 2 -7
2 -19 0 -25z m-597 -28 c17 -32 0 -47 -21 -19 -23 29 -24 39 -4 39 8 0 19 -9
25 -20z m-120 -124 c-13 -13 -55 27 -45 44 5 8 14 5 31 -11 17 -16 21 -26 14
-33z m-110 -110 c-13 -13 -55 27 -45 44 5 8 14 5 31 -11 17 -16 21 -26 14 -33z
m905 -30 c25 -11 33 -19 29 -30 -8 -20 -8 -20 -49 0 -22 10 -32 21 -28 30 6
17 6 17 48 0z m18 -81 c8 -18 -15 -20 -46 -4 -24 13 -37 28 -37 46 0 16 76
-22 83 -42z m-1003 3 c0 -17 -20 -16 -41 0 -31 26 -16 48 16 25 14 -10 25 -21
25 -25z m755 10 l40 -12 -67 -7 c-135 -15 -241 -69 -338 -176 -71 -77 -115
-153 -151 -256 -39 -114 -50 -174 -50 -292 -1 -167 46 -324 129 -433 27 -36
29 -41 11 -31 -74 39 -156 170 -184 294 -33 139 -17 383 31 506 52 132 185
294 289 355 104 60 203 78 290 52z m129 -44 c15 -6 2 -11 -49 -21 -121 -25
-227 -93 -323 -207 -127 -151 -182 -314 -182 -542 0 -180 32 -304 105 -405
l34 -48 -39 14 c-55 19 -104 77 -154 180 -60 123 -71 175 -70 335 1 144 13
211 61 324 81 194 241 341 408 375 53 11 177 8 209 -5z m132 -60 c148 -70 236
-255 238 -499 1 -142 -17 -229 -75 -353 -106 -229 -273 -370 -450 -380 -246
-14 -389 179 -389 525 0 210 53 370 170 518 154 193 346 265 506 189z m-1122
-39 c29 -22 7 -40 -22 -19 -12 8 -22 19 -22 25 0 13 22 10 44 -6z m-81 -179
c16 -12 24 -36 11 -36 -16 0 -44 23 -44 35 0 18 10 19 33 1z m-39 -172 c17 -7
22 -34 7 -34 -21 0 -41 13 -41 26 0 15 10 17 34 8z m-20 -150 c27 -10 19 -32
-9 -26 -14 2 -25 11 -25 18 0 15 10 17 34 8z m6 -169 c0 -8 -9 -15 -20 -15
-11 0 -20 7 -20 15 0 8 9 15 20 15 11 0 20 -7 20 -15z m-1 -153 c-5 -2 -17 -1
-27 3 -15 6 -15 8 3 15 12 4 23 3 27 -4 4 -6 3 -13 -3 -14z m26 -152 c3 -5 -3
-10 -14 -10 -12 0 -21 5 -21 10 0 6 6 10 14 10 8 0 18 -4 21 -10z m40 -160 c3
-5 -1 -10 -9 -10 -9 0 -16 5 -16 10 0 6 4 10 9 10 6 0 13 -4 16 -10z"/>
<path d="M6917 6708 c-9 -7 -19 -25 -22 -40 -5 -21 -1 -33 19 -52 30 -31 40
-32 66 -6 24 24 26 57 4 88 -17 25 -42 28 -67 10z m59 -23 c34 -52 -24 -104
-60 -54 -16 23 -12 47 12 67 22 17 29 15 48 -13z"/>
<path d="M6435 6393 c-11 -29 -34 -291 -35 -393 0 -81 15 -208 36 -300 12 -54
-8 -9 -31 71 -33 114 -40 210 -25 359 7 69 14 148 14 175 1 34 5 49 14 48 6
-2 12 2 12 7 0 12 -27 13 -34 1 -9 -14 -20 -243 -20 -381 1 -105 6 -139 28
-213 14 -48 26 -105 26 -127 0 -26 5 -40 13 -40 40 0 47 61 22 182 -25 117
-28 239 -11 431 9 98 16 182 16 188 0 16 -17 10 -25 -8z"/>
<path d="M6586 6338 c-27 -38 -14 -78 25 -78 16 0 16 -4 -4 -47 -33 -72 -31
-202 3 -261 43 -76 120 -102 195 -67 160 77 193 384 49 461 -46 25 -115 14
-164 -25 l-39 -31 -3 33 c-4 41 -38 50 -62 15z"/>
<path d="M6921 5976 c-7 -8 -11 -30 -9 -48 2 -27 8 -34 29 -36 21 -2 29 3 39
29 10 22 10 36 3 48 -13 22 -47 25 -62 7z"/>
<path d="M6570 5854 c-13 -34 -10 -54 13 -68 28 -18 52 4 52 50 0 35 -3 39
-27 42 -23 3 -30 -2 -38 -24z"/>
<path d="M5382 5995 c-10 -13 -25 -46 -32 -72 -7 -26 -20 -77 -30 -113 -34
-122 -34 -129 1 -161 30 -28 74 -47 85 -37 2 3 -3 22 -11 43 -16 36 -15 39 11
92 15 30 42 70 59 90 31 35 33 36 63 24 91 -38 76 60 -19 129 -53 38 -100 40
-127 5z m97 1 c42 -22 91 -83 91 -112 0 -21 -3 -25 -17 -18 -10 4 -31 8 -48 8
-27 1 -36 -8 -82 -77 -53 -78 -62 -111 -43 -148 13 -24 3 -24 -37 1 -42 25
-42 37 2 197 43 159 65 184 134 149z"/>
<path d="M5600 5886 c0 -10 7 -43 16 -73 26 -89 -1 -125 -121 -163 -66 -21
-64 -30 8 -30 145 0 207 33 207 109 0 40 -38 109 -84 150 -22 21 -26 22 -26 7z
m92 -128 c22 -74 -18 -110 -137 -121 l-60 -6 56 25 c84 38 106 89 74 179 l-14
40 35 -39 c19 -22 39 -57 46 -78z"/>
<path d="M5280 5619 c0 -21 181 -227 211 -239 21 -9 55 -11 111 -6 l81 7 38
-37 c32 -31 41 -35 53 -25 45 38 46 158 2 216 -33 43 -60 45 -136 8 -70 -33
-142 -36 -191 -6 -18 11 -61 37 -93 57 -64 38 -76 42 -76 25z m137 -79 c70
-44 132 -50 199 -20 111 50 133 46 166 -27 22 -50 19 -114 -7 -149 -13 -18
-15 -18 -49 15 l-35 34 -80 -7 c-107 -9 -133 3 -207 94 -33 40 -70 87 -84 104
l-25 31 35 -21 c19 -12 59 -36 87 -54z"/>
<path d="M6836 5667 c3 -10 9 -15 12 -12 3 3 0 11 -7 18 -10 9 -11 8 -5 -6z"/>
<path d="M6776 5614 c-10 -25 -7 -30 17 -32 13 -1 28 7 36 19 7 12 8 18 2 14
-6 -3 -11 -1 -11 4 0 17 -37 13 -44 -5z m34 -8 c0 -3 -4 -8 -10 -11 -5 -3 -10
-1 -10 4 0 6 5 11 10 11 6 0 10 -2 10 -4z"/>
<path d="M5405 5048 c-22 -26 -26 -38 -21 -67 17 -104 18 -124 7 -168 -8 -33
-25 -61 -53 -90 l-40 -41 4 -106 c4 -127 16 -148 69 -126 17 7 44 31 59 51
l28 39 7 242 c8 299 0 337 -60 266z"/>
<path d="M1655 5090 c-101 -42 -151 -286 -75 -368 44 -47 106 -40 160 17 45
47 60 97 60 195 0 89 -16 128 -60 151 -32 17 -55 18 -85 5z m118 -61 c25 -48
19 -177 -11 -236 -43 -83 -123 -110 -172 -58 -48 51 -35 228 21 300 51 64 127
62 162 -6z"/>
<path d="M10065 4533 c-240 -97 -409 -403 -392 -708 8 -149 61 -285 121 -310
47 -20 201 -38 263 -32 174 18 326 187 394 437 20 73 17 255 -5 320 -42 122
-113 220 -203 279 -54 36 -112 40 -178 14z"/>
<path d="M4515 4440 c-4 -7 -3 -16 3 -22 14 -14 45 -2 40 15 -6 16 -34 21 -43
7z"/>
<path d="M3995 3963 c-48 -47 -48 -153 0 -153 17 0 28 11 44 43 23 48 26 79
11 108 -13 23 -33 24 -55 2z"/>
<path d="M4647 3764 c-8 -8 1 -24 14 -24 5 0 9 7 9 15 0 15 -12 20 -23 9z"/>
<path d="M4685 3761 c-6 -11 9 -23 19 -14 9 9 7 23 -3 23 -6 0 -12 -4 -16 -9z"/>
<path d="M4632 3719 c2 -6 8 -10 13 -10 5 0 11 4 13 10 2 6 -4 11 -13 11 -9 0
-15 -5 -13 -11z"/>
<path d="M4690 3720 c0 -5 -3 -9 -7 -7 -5 1 -9 -1 -10 -5 -3 -9 -5 -9 25 -2
25 7 30 24 7 24 -8 0 -15 -4 -15 -10z"/>
<path d="M5101 2244 c-35 -45 -25 -94 19 -94 45 0 82 60 60 100 -15 28 -54 25
-79 -6z"/>
<path d="M5397 872 c-50 -55 21 -124 73 -72 22 22 26 60 8 78 -18 18 -63 14
-81 -6z"/>
<path d="M4921 1614 c-23 -29 -28 -92 -11 -125 24 -44 101 -4 113 59 3 15 -1
42 -8 59 -18 43 -63 46 -94 7z"/>
<path d="M4602 1453 c-7 -3 -19 -18 -27 -33 -33 -64 -4 -139 49 -126 31 8 66
59 66 96 0 52 -42 82 -88 63z"/>
<path d="M4783 1349 c-47 -23 -94 -77 -120 -136 -27 -61 -24 -186 6 -246 50
-103 159 -104 248 -3 57 64 77 128 71 225 -5 88 -32 141 -85 166 -42 20 -70
19 -120 -6z"/>
<path d="M5134 1280 c-60 -23 -75 -132 -23 -160 46 -25 110 52 93 113 -11 38
-42 58 -70 47z"/>
<path d="M4514 968 c-28 -13 -44 -49 -44 -98 0 -68 58 -86 100 -32 26 33 27
103 2 125 -21 19 -28 20 -58 5z"/>
<path d="M4921 834 c-27 -22 -31 -32 -31 -74 0 -54 15 -73 56 -68 58 7 89 104
48 149 -23 25 -36 24 -73 -7z"/>
<path d="M8880 6325 c0 -60 3 -75 15 -75 10 0 15 10 15 30 0 27 3 30 30 30 20
0 30 5 30 15 0 10 -10 15 -30 15 -23 0 -30 4 -30 20 0 16 7 20 35 20 19 0 35
5 35 10 0 6 -22 10 -50 10 l-50 0 0 -75z"/>
<path d="M9000 6325 c0 -60 3 -75 15 -75 12 0 15 15 15 75 0 60 -3 75 -15 75
-12 0 -15 -15 -15 -75z"/>
<path d="M9360 6326 l0 -76 51 0 c57 0 66 23 11 28 -30 3 -31 5 -34 59 -2 34
-8 58 -15 61 -10 3 -13 -16 -13 -72z"/>
<path d="M9482 6388 c6 -18 28 -21 28 -4 0 9 -7 16 -16 16 -9 0 -14 -5 -12
-12z"/>
<path d="M9064 6335 c-14 -21 -15 -31 -6 -51 14 -30 33 -38 67 -30 36 9 31 27
-6 24 -19 -2 -34 2 -36 10 -3 8 7 12 31 12 28 0 36 4 36 18 0 46 -60 57 -86
17z m61 -4 c3 -5 1 -13 -5 -16 -15 -9 -43 3 -35 15 8 13 32 13 40 1z"/>
<path d="M9186 6334 c16 -24 16 -27 0 -55 -15 -25 -15 -29 -2 -29 8 0 20 8 26
18 10 16 10 16 20 0 6 -10 18 -18 25 -18 19 0 19 5 -1 35 -14 22 -14 26 1 49
15 23 16 26 2 26 -9 0 -20 -7 -25 -16 -8 -14 -10 -14 -21 0 -8 9 -20 16 -27
16 -12 0 -11 -5 2 -26z"/>
<path d="M9480 6305 c0 -42 3 -55 15 -55 12 0 15 13 15 55 0 42 -3 55 -15 55
-12 0 -15 -13 -15 -55z"/>
<path d="M9540 6303 c0 -40 4 -53 14 -53 10 0 16 14 18 42 2 31 8 44 21 46 14
3 17 -4 17 -42 0 -34 4 -46 15 -46 11 0 15 12 15 44 0 52 -12 65 -62 63 l-38
-1 0 -53z"/>
<path d="M9676 6344 c-34 -33 -9 -94 38 -94 13 0 29 7 36 15 11 13 8 15 -20
13 -19 -2 -35 2 -37 10 -3 8 7 12 31 12 28 0 36 4 36 18 0 40 -54 57 -84 26z
m54 -19 c0 -8 -9 -15 -20 -15 -20 0 -26 11 -13 23 12 13 33 7 33 -8z"/>
<path d="M2780 6195 c0 -60 3 -75 15 -75 11 0 15 12 16 48 l1 47 15 -47 c17
-58 39 -62 48 -10 11 65 25 73 25 15 0 -29 5 -53 10 -53 6 0 10 32 10 75 0 68
-2 75 -19 75 -15 0 -23 -12 -34 -47 l-14 -48 -14 48 c-11 38 -17 47 -36 47
-22 0 -23 -3 -23 -75z"/>
<path d="M3531 6256 c-7 -8 -15 -30 -18 -49 -4 -29 -1 -40 20 -61 31 -31 57
-33 88 -6 20 17 22 21 9 29 -10 7 -17 6 -23 -4 -10 -19 -41 -19 -56 -1 -17 20
-10 67 11 80 12 7 24 6 42 -4 30 -16 45 -7 26 15 -16 19 -84 20 -99 1z"/>
<path d="M3790 6195 c0 -43 4 -75 10 -75 6 0 10 32 10 75 0 43 -4 75 -10 75
-6 0 -10 -32 -10 -75z"/>
<path d="M3840 6260 c0 -5 7 -10 15 -10 8 0 15 5 15 10 0 6 -7 10 -15 10 -8 0
-15 -4 -15 -10z"/>
<path d="M4100 6247 c0 -20 -4 -23 -30 -19 -25 4 -31 0 -40 -23 -7 -19 -7 -34
3 -53 10 -22 20 -27 55 -29 l42 -2 0 75 c0 59 -3 74 -15 74 -9 0 -15 -9 -15
-23z m-5 -72 c0 -33 -28 -47 -39 -19 -10 25 3 56 22 52 11 -2 17 -13 17 -33z"/>
<path d="M3192 6243 c-5 -10 -6 -40 -3 -68 5 -42 10 -51 29 -53 12 -2 22 1 22
7 0 6 -4 11 -10 11 -15 0 -12 67 3 74 10 5 10 7 0 12 -7 3 -13 12 -13 20 0 20
-17 18 -28 -3z"/>
<path d="M2967 6224 c-14 -14 -7 -25 13 -19 11 3 25 3 32 -1 8 -5 -1 -12 -23
-19 -26 -9 -34 -17 -34 -36 0 -22 4 -24 45 -25 l45 -2 -5 52 c-5 48 -7 51 -35
54 -17 2 -34 0 -38 -4z m51 -66 c-7 -19 -38 -22 -38 -4 0 10 9 16 21 16 12 0
19 -5 17 -12z"/>
<path d="M3077 6223 c-17 -17 -5 -45 23 -54 17 -6 30 -15 30 -20 0 -12 -24
-11 -37 2 -8 8 -13 7 -18 -1 -16 -25 50 -41 73 -18 22 22 14 48 -18 55 -17 3
-33 10 -37 16 -4 6 7 7 30 3 31 -6 36 -4 31 9 -6 15 -64 22 -77 8z"/>
<path d="M3260 6211 c-15 -29 -12 -56 8 -74 23 -21 56 -22 72 -2 11 13 8 15
-20 13 -19 -2 -35 2 -37 10 -3 8 7 12 31 12 28 0 36 4 36 18 0 42 -70 60 -90
23z m60 -16 c0 -8 -6 -15 -14 -15 -17 0 -28 14 -19 24 12 12 33 6 33 -9z"/>
<path d="M3376 6177 c0 -30 5 -52 12 -55 8 -2 12 8 12 26 0 40 9 62 26 62 8 0
14 4 14 9 0 5 -15 9 -32 9 -33 0 -33 0 -32 -51z"/>
<path d="M3666 6208 c3 -13 12 -36 19 -53 14 -34 10 -55 -11 -55 -8 0 -14 -4
-14 -10 0 -14 36 -12 48 3 10 12 52 116 52 130 0 4 -6 7 -14 7 -7 0 -16 -13
-19 -30 -4 -16 -11 -30 -16 -30 -5 0 -12 14 -16 30 -4 17 -13 30 -21 30 -11 0
-13 -6 -8 -22z"/>
<path d="M3842 6178 c4 -74 28 -77 28 -4 0 44 -3 56 -16 56 -12 0 -14 -10 -12
-52z"/>
<path d="M3900 6174 c0 -40 4 -54 14 -54 10 0 16 14 18 42 2 31 8 44 21 46 14
3 17 -4 17 -42 0 -35 4 -46 16 -46 12 0 14 10 12 53 l-3 52 -47 2 -48 2 0 -55z"/>
<path d="M4160 6211 c-15 -29 -12 -56 8 -74 23 -21 56 -22 73 -1 11 14 9 15
-21 12 -20 -2 -35 2 -37 10 -3 8 7 12 31 12 28 0 36 4 36 18 0 42 -70 60 -90
23z m60 -16 c0 -8 -9 -15 -20 -15 -20 0 -26 11 -13 23 12 13 33 7 33 -8z"/>
<path d="M4272 6177 c3 -55 28 -81 28 -29 0 40 9 62 26 62 8 0 14 4 14 9 0 5
-16 9 -35 9 l-36 0 3 -51z"/>
<path d="M9112 5778 c-16 -16 -15 -48 1 -48 8 0 14 12 14 30 0 35 1 34 -15 18z"/>
<path d="M9200 5775 c0 -8 9 -15 20 -15 18 0 20 -7 20 -60 0 -47 3 -60 15 -60
12 0 15 13 15 59 0 52 3 60 20 63 41 6 19 23 -35 26 -44 2 -55 0 -55 -13z"/>
<path d="M9334 5778 c-4 -6 -2 -14 5 -16 9 -3 9 -7 -1 -20 -11 -13 -11 -14 2
-10 8 2 16 17 18 31 3 28 -11 36 -24 15z"/>
<path d="M9380 5775 c0 -8 5 -15 11 -15 8 0 7 -6 -2 -17 -12 -14 -12 -16 1
-11 21 7 26 58 6 58 -9 0 -16 -7 -16 -15z"/>
<path d="M9500 5715 c0 -60 3 -75 15 -75 10 0 15 10 15 30 0 27 3 30 30 30 20
0 30 5 30 15 0 10 -10 15 -30 15 -20 0 -30 5 -30 15 0 10 11 15 35 15 24 0 35
5 35 15 0 11 -12 15 -50 15 l-50 0 0 -75z"/>
<path d="M9630 5775 c0 -9 5 -15 11 -13 6 2 11 8 11 13 0 5 -5 11 -11 13 -6 2
-11 -4 -11 -13z"/>
<path d="M9830 5775 c0 -8 5 -15 10 -15 6 0 10 7 10 15 0 8 -4 15 -10 15 -5 0
-10 -7 -10 -15z"/>
<path d="M9157 5773 c-12 -12 -7 -43 7 -43 9 0 13 10 12 25 -1 25 -7 31 -19
18z"/>
<path d="M9688 5758 c-11 -17 -14 -29 -8 -33 6 -3 10 -24 10 -46 0 -36 2 -39
27 -39 25 0 25 1 10 18 -19 20 -23 62 -7 62 6 0 10 7 10 15 0 8 -4 15 -9 15
-5 0 -11 8 -13 17 -2 14 -6 12 -20 -9z"/>
<path d="M9761 5763 c-5 -10 -6 -42 -4 -70 5 -48 8 -53 29 -53 27 0 32 15 9
24 -17 6 -21 56 -5 56 6 0 10 7 10 15 0 8 -5 15 -11 15 -6 0 -9 7 -5 15 8 21
-11 19 -23 -2z"/>
<path d="M9630 5696 c0 -44 3 -56 16 -56 12 0 14 10 12 52 -4 74 -28 77 -28 4z"/>
<path d="M9830 5695 c0 -30 5 -55 10 -55 6 0 10 25 10 55 0 30 -4 55 -10 55
-5 0 -10 -25 -10 -55z"/>
<path d="M9887 5743 c-4 -3 -7 -28 -7 -55 0 -36 4 -48 15 -48 10 0 15 10 15
34 0 33 20 62 33 49 4 -3 7 -24 7 -45 0 -27 4 -38 15 -38 11 0 15 12 15 49 0
41 -3 51 -20 56 -12 4 -27 1 -35 -5 -11 -9 -15 -9 -15 -1 0 12 -13 15 -23 4z"/>
<path d="M10021 5737 c-16 -16 -14 -72 4 -87 8 -7 24 -10 36 -7 15 4 19 1 16
-11 -2 -9 -10 -15 -18 -13 -8 2 -22 6 -31 8 -27 8 -21 -16 7 -29 19 -8 31 -8
50 0 23 11 25 17 25 80 l0 68 -39 1 c-21 1 -43 -3 -50 -10z m57 -36 c5 -34
-16 -51 -33 -27 -10 14 -11 24 -4 38 13 24 33 18 37 -11z"/>
<path d="M8550 5710 c-70 -19 -69 -21 26 -45 76 -19 78 -19 70 0 -5 13 20 15
189 15 123 0 195 4 195 10 0 6 -70 10 -190 10 -162 0 -190 2 -190 15 0 19 -18
18 -100 -5z"/>
<path d="M2890 4265 c0 -60 3 -75 15 -75 10 0 15 10 15 30 0 19 5 30 14 30 8
0 24 -13 36 -30 12 -16 28 -30 36 -30 19 0 18 7 -6 40 -17 24 -18 29 -5 34 18
7 20 47 3 64 -7 7 -34 12 -60 12 l-48 0 0 -75z m81 45 c5 0 9 -6 9 -14 0 -16
-41 -29 -54 -16 -14 14 2 43 20 36 9 -3 20 -6 25 -6z"/>
<path d="M3280 4325 c0 -8 5 -15 10 -15 6 0 10 7 10 15 0 8 -4 15 -10 15 -5 0
-10 -7 -10 -15z"/>
<path d="M3410 4315 c0 -22 -3 -25 -25 -19 -34 8 -55 -11 -55 -51 0 -41 17
-55 63 -53 l37 1 0 74 c0 42 -4 73 -10 73 -5 0 -10 -11 -10 -25z m-10 -50 c16
-19 3 -57 -18 -53 -18 3 -27 30 -18 54 7 18 20 18 36 -1z"/>
<path d="M3710 4265 c0 -60 3 -75 15 -75 12 0 15 15 15 75 0 60 -3 75 -15 75
-12 0 -15 -15 -15 -75z"/>
<path d="M3052 4288 c-17 -17 -15 -73 2 -87 19 -16 68 -10 74 8 3 10 -3 11
-27 6 -24 -5 -31 -3 -31 9 0 11 9 16 30 16 22 0 30 5 30 18 0 24 -19 42 -45
42 -12 0 -26 -5 -33 -12z m56 -25 c2 -8 -5 -13 -17 -13 -12 0 -21 6 -21 16 0
18 31 15 38 -3z"/>
<path d="M3161 4286 c-17 -20 -3 -44 30 -51 44 -10 36 -29 -8 -20 -33 6 -35 5
-24 -9 17 -20 65 -21 81 -1 18 22 5 45 -30 51 -16 4 -30 11 -30 16 0 6 15 7
37 3 33 -6 35 -5 24 9 -16 20 -64 21 -80 2z"/>
<path d="M3280 4245 c0 -30 5 -55 10 -55 6 0 10 25 10 55 0 30 -4 55 -10 55
-5 0 -10 -25 -10 -55z"/>
<path d="M3460 4264 c0 -57 14 -73 60 -71 l40 1 0 53 c0 40 -4 53 -15 53 -11
0 -15 -12 -15 -46 0 -38 -3 -45 -17 -42 -13 2 -19 15 -21 46 -4 54 -32 60 -32
6z"/>
<path d="M3603 4293 c-26 -10 -12 -24 17 -18 37 8 41 -12 5 -21 -32 -8 -50
-38 -32 -52 6 -6 29 -10 50 -9 37 1 37 1 37 42 0 23 -5 46 -12 53 -12 12 -43
15 -65 5z m47 -68 c0 -8 -9 -15 -20 -15 -20 0 -26 11 -13 23 12 13 33 7 33 -8z"/>
<path d="M3051 4097 c0 -7 10 -39 23 -72 17 -44 28 -60 42 -60 14 0 25 15 41
60 26 73 27 75 9 75 -8 0 -22 -22 -32 -52 l-17 -52 -20 51 c-17 47 -48 79 -46
50z"/>
<path d="M3310 4030 c0 -40 4 -70 10 -70 6 0 10 30 10 70 0 40 -4 70 -10 70
-6 0 -10 -30 -10 -70z"/>
<path d="M3208 4059 c-28 -16 -21 -29 12 -22 40 8 38 -10 -2 -22 -63 -19 -38
-68 30 -58 29 5 32 8 32 42 0 20 -4 41 -8 47 -11 17 -45 24 -64 13z m40 -71
c-3 -7 -11 -13 -18 -13 -7 0 -15 6 -17 13 -3 7 4 12 17 12 13 0 20 -5 18 -12z"/>
<path d="M3490 4050 c-11 -11 -20 -29 -20 -40 0 -23 33 -60 53 -60 23 0 52 26
38 34 -6 4 -18 3 -25 -3 -10 -8 -17 -7 -26 4 -11 13 -7 15 24 15 29 0 36 4 36
19 0 18 -34 51 -52 51 -5 0 -17 -9 -28 -20z m50 -20 c0 -5 -9 -10 -21 -10 -11
0 -17 5 -14 10 3 6 13 10 21 10 8 0 14 -4 14 -10z"/>
<path d="M3372 4010 c11 -27 27 -50 34 -50 7 0 22 21 34 46 24 55 24 54 6 54
-8 0 -19 -15 -26 -32 l-12 -33 -14 33 c-8 17 -21 32 -28 32 -12 0 -11 -9 6
-50z"/>
<path d="M818 3613 c17 -2 47 -2 65 0 17 2 3 4 -33 4 -36 0 -50 -2 -32 -4z"/>
<path d="M870 3245 c0 -60 3 -75 15 -75 10 0 15 10 15 30 0 27 3 30 31 30 38
0 35 24 -4 28 -41 5 -34 32 8 32 24 0 35 5 35 15 0 11 -12 15 -50 15 l-50 0 0
-75z"/>
<path d="M1000 3245 c0 -43 4 -75 10 -75 6 0 10 32 10 75 0 43 -4 75 -10 75
-6 0 -10 -32 -10 -75z"/>
<path d="M1350 3246 l0 -76 50 0 c28 0 50 5 50 10 0 6 -16 10 -35 10 l-34 0
-3 62 c-2 38 -8 63 -15 66 -10 3 -13 -16 -13 -72z"/>
<path d="M1477 3314 c-8 -8 1 -24 14 -24 5 0 9 7 9 15 0 15 -12 20 -23 9z"/>
<path d="M1066 3267 c-13 -9 -17 -23 -14 -52 3 -39 4 -40 42 -40 25 0 41 5 44
14 3 10 -2 12 -22 7 -15 -4 -32 -3 -39 1 -7 5 4 10 28 13 33 4 39 8 37 25 -4
21 -28 45 -47 45 -6 0 -19 -6 -29 -13z m40 -35 c-22 -5 -30 3 -21 18 5 8 11 7
22 -2 15 -12 14 -13 -1 -16z"/>
<path d="M1170 3270 c0 -6 5 -19 12 -29 9 -15 8 -24 -5 -45 -14 -21 -15 -26
-3 -26 7 0 19 7 27 16 11 14 13 14 21 0 9 -16 38 -22 38 -8 0 4 -7 16 -15 26
-13 17 -13 23 1 44 19 30 11 41 -15 18 -16 -15 -19 -15 -31 -1 -14 17 -30 20
-30 5z"/>
<path d="M1476 3264 c-3 -9 -6 -33 -6 -55 0 -28 4 -39 15 -39 12 0 15 13 15
55 0 53 -11 72 -24 39z"/>
<path d="M1534 3271 c-2 -2 -4 -26 -4 -53 0 -36 4 -48 15 -48 11 0 15 11 15
39 0 24 5 41 14 44 20 8 26 -2 26 -45 0 -27 4 -38 15 -38 19 0 21 85 3 97 -13
8 -76 11 -84 4z"/>
<path d="M1670 3260 c-40 -40 -16 -94 40 -88 18 2 35 9 38 17 3 10 -3 12 -26
6 -18 -3 -33 -2 -37 4 -4 7 7 11 29 11 29 0 36 4 36 19 0 23 -25 51 -46 51 -8
0 -23 -9 -34 -20z m50 -15 c11 -13 8 -15 -15 -15 -23 0 -26 2 -15 15 7 8 14
15 15 15 1 0 8 -7 15 -15z"/>
<path d="M7696 3139 c-30 -82 -30 -79 -12 -79 8 0 18 9 21 20 9 28 58 27 78
-2 28 -43 30 -8 3 62 -37 94 -55 94 -90 -1z m64 -6 c0 -7 -9 -13 -20 -13 -23
0 -24 4 -9 32 9 17 13 18 20 7 5 -8 9 -20 9 -26z"/>
<path d="M7910 3190 c0 -15 -7 -20 -28 -20 -35 0 -52 -16 -52 -49 0 -40 15
-55 59 -57 l41 -2 0 74 c0 43 -4 74 -10 74 -5 0 -10 -9 -10 -20z m-6 -56 c8
-20 -12 -56 -27 -51 -7 2 -13 18 -15 35 -3 26 0 32 16 32 11 0 23 -7 26 -16z"/>
<path d="M7960 3200 c0 -5 7 -10 15 -10 8 0 15 5 15 10 0 6 -7 10 -15 10 -8 0
-15 -4 -15 -10z"/>
<path d="M8450 3136 l0 -74 42 1 c34 2 45 7 57 29 22 39 3 78 -39 78 -23 0
-30 4 -30 20 0 11 -7 20 -15 20 -12 0 -15 -15 -15 -74z m78 -9 c5 -23 -16 -47
-34 -40 -14 5 -19 44 -7 57 12 12 38 1 41 -17z"/>
<path d="M8580 3135 c0 -60 3 -75 15 -75 12 0 15 15 15 75 0 60 -3 75 -15 75
-12 0 -15 -15 -15 -75z"/>
<path d="M3805 3180 c-42 -46 -11 -130 46 -130 27 0 59 22 59 41 0 5 -7 9 -15
9 -8 0 -15 -4 -15 -10 0 -19 -49 -11 -60 10 -25 46 17 95 59 68 25 -15 39 -4
21 17 -18 22 -73 19 -95 -5z"/>
<path d="M4252 3128 l3 -72 37 -2 c45 -3 68 16 68 55 0 35 -22 55 -55 49 -21
-4 -25 -1 -25 18 0 15 -6 24 -15 24 -13 0 -15 -12 -13 -72z m73 -23 c0 -39
-31 -48 -41 -11 -7 30 2 48 24 44 11 -2 17 -13 17 -33z"/>
<path d="M4380 3190 c0 -5 7 -10 15 -10 8 0 15 5 15 10 0 6 -7 10 -15 10 -8 0
-15 -4 -15 -10z"/>
<path d="M4760 3190 c0 -5 7 -10 15 -10 8 0 15 5 15 10 0 6 -7 10 -15 10 -8 0
-15 -4 -15 -10z"/>
<path d="M8270 3186 c0 -8 -6 -17 -12 -20 -10 -5 -10 -7 0 -12 6 -3 12 -23 12
-45 0 -40 17 -58 41 -44 8 6 8 9 -1 15 -15 9 -20 41 -8 63 5 10 5 25 -2 37
-12 23 -30 27 -30 6z"/>
<path d="M4692 3173 c-5 -10 -6 -40 -3 -68 5 -42 10 -51 29 -53 12 -2 22 1 22
7 0 6 -4 11 -10 11 -15 0 -12 67 3 74 10 5 10 7 0 12 -7 3 -13 12 -13 20 0 20
-17 18 -28 -3z"/>
<path d="M7960 3111 c0 -33 -4 -63 -10 -66 -18 -11 -10 -26 13 -23 20 3 22 9
25 76 2 59 0 72 -13 72 -12 0 -15 -13 -15 -59z"/>
<path d="M8020 3126 c0 -51 10 -61 63 -62 l37 0 0 53 c0 39 -4 53 -14 53 -10
0 -16 -14 -18 -42 -2 -30 -8 -43 -18 -43 -10 0 -16 13 -18 43 -2 28 -8 42 -18
42 -10 0 -14 -12 -14 -44z"/>
<path d="M8146 3154 c-8 -21 8 -40 39 -48 14 -4 25 -11 25 -16 0 -13 -23 -13
-37 1 -6 6 -17 8 -24 4 -9 -6 -7 -11 6 -22 25 -18 60 -17 76 3 16 19 1 47 -27
52 -10 2 -23 9 -29 14 -7 7 0 9 23 4 24 -4 32 -2 30 7 -7 20 -74 21 -82 1z"/>
<path d="M8340 3155 c0 -11 7 -14 24 -9 13 3 27 1 30 -5 4 -6 -1 -11 -11 -11
-11 0 -28 -6 -39 -14 -30 -23 -7 -51 44 -53 l40 -1 -5 41 c-7 63 -10 67 -48
67 -25 0 -35 -4 -35 -15z m58 -57 c-7 -19 -38 -22 -38 -4 0 10 9 16 21 16 12
0 19 -5 17 -12z"/>
<path d="M8640 3151 c-15 -29 -12 -56 8 -74 23 -21 56 -22 71 -3 16 19 -4 32
-24 16 -15 -12 -35 -6 -35 11 0 5 16 9 35 9 27 0 35 4 35 18 0 42 -70 60 -90
23z m60 -11 c0 -5 -9 -10 -21 -10 -11 0 -17 5 -14 10 3 6 13 10 21 10 8 0 14
-4 14 -10z"/>
<path d="M3950 3145 c-29 -35 -4 -95 40 -95 28 0 53 25 53 53 0 36 -20 57 -53
57 -15 0 -33 -7 -40 -15z m64 -28 c16 -25 -16 -56 -38 -37 -19 15 -20 32 -4
48 15 15 28 11 42 -11z"/>
<path d="M4070 3104 c0 -30 5 -54 10 -54 6 0 10 10 10 23 0 38 12 67 26 67 10
0 14 -13 14 -45 0 -33 4 -45 14 -45 10 0 16 14 18 43 2 29 8 42 18 42 11 0 16
-13 18 -43 4 -53 26 -52 30 2 5 55 -8 64 -88 63 l-70 0 0 -53z"/>
<path d="M4380 3105 c0 -42 3 -55 15 -55 12 0 15 13 15 55 0 42 -3 55 -15 55
-12 0 -15 -13 -15 -55z"/>
<path d="M4440 3104 c0 -40 4 -54 14 -54 10 0 16 14 18 42 2 31 8 44 21 46 14
3 17 -4 17 -42 0 -35 4 -46 16 -46 12 0 14 10 12 53 l-3 52 -47 2 -48 2 0 -55z"/>
<path d="M4577 3153 c-16 -15 -5 -24 23 -18 37 8 42 -12 5 -21 -64 -16 -52
-64 16 -61 39 1 39 2 39 42 0 23 -5 46 -12 53 -13 13 -60 16 -71 5z m53 -63
c0 -12 -28 -25 -36 -17 -9 9 6 27 22 27 8 0 14 -5 14 -10z"/>
<path d="M4760 3104 c0 -73 24 -70 28 4 2 42 0 52 -12 52 -13 0 -16 -12 -16
-56z"/>
<path d="M4826 3144 c-34 -34 -9 -94 39 -94 30 0 55 25 55 55 0 13 -7 31 -16
39 -8 9 -26 16 -39 16 -13 0 -31 -7 -39 -16z m59 -39 c0 -23 -4 -30 -20 -30
-21 0 -31 25 -21 51 11 28 41 12 41 -21z"/>
<path d="M4942 3108 c3 -56 28 -82 28 -30 0 40 9 62 25 62 16 0 25 -22 25 -61
0 -16 5 -29 11 -29 6 0 9 21 7 53 l-3 52 -48 2 -48 2 3 -51z"/>
<path d="M7230 2905 c0 -60 3 -75 15 -75 10 0 15 10 15 30 0 26 4 30 28 30 34
0 52 16 52 47 0 27 -27 43 -74 43 l-36 0 0 -75z m78 28 c-2 -10 -13 -19 -26
-21 -17 -3 -22 2 -22 17 0 16 6 21 26 21 19 0 25 -5 22 -17z"/>
<path d="M7990 2965 c0 -8 5 -15 10 -15 6 0 10 7 10 15 0 8 -4 15 -10 15 -5 0
-10 -7 -10 -15z"/>
<path d="M8300 2965 c0 -8 7 -15 15 -15 8 0 15 7 15 15 0 8 -7 15 -15 15 -8 0
-15 -7 -15 -15z"/>
<path d="M8665 2964 c4 -11 16 -45 27 -76 28 -82 46 -78 80 18 24 65 25 75 11
72 -10 -2 -23 -22 -32 -51 -8 -26 -17 -47 -21 -47 -4 0 -13 21 -21 47 -10 31
-21 49 -33 51 -15 3 -17 0 -11 -14z"/>
<path d="M8920 2905 c0 -60 3 -75 15 -75 12 0 15 15 15 75 0 60 -3 75 -15 75
-12 0 -15 -15 -15 -75z"/>
<path d="M4156 2948 c32 -103 42 -123 60 -126 16 -2 24 9 42 66 26 81 26 82 8
82 -8 0 -19 -20 -26 -47 -7 -27 -16 -51 -20 -56 -3 -4 -14 18 -24 48 -11 35
-23 55 -32 55 -11 0 -13 -6 -8 -22z"/>
<path d="M4410 2896 c0 -62 3 -76 15 -76 13 0 15 12 13 72 -2 46 -7 73 -15 76
-10 3 -13 -16 -13 -72z"/>
<path d="M7923 2955 c-5 -8 -26 -16 -48 -17 l-40 -3 -3 -53 c-2 -42 0 -52 12
-52 12 0 16 10 16 35 0 28 5 38 23 44 31 12 37 6 37 -40 0 -35 3 -39 25 -39
14 0 25 5 25 10 0 6 -5 10 -11 10 -8 0 -10 14 -6 40 8 64 -9 103 -30 65z"/>
<path d="M7370 2883 c0 -29 5 -53 10 -53 6 0 10 11 10 24 0 35 10 56 26 56 8
0 14 6 14 14 0 10 -10 14 -30 14 -29 -1 -30 -2 -30 -55z"/>
<path d="M7460 2920 c-24 -24 -25 -38 -4 -68 17 -24 62 -30 82 -10 17 17 15
64 -4 82 -21 22 -50 20 -74 -4z m61 -21 c9 -17 8 -25 -4 -37 -19 -18 -47 -9
-47 16 0 18 18 42 32 42 4 0 12 -10 19 -21z"/>
<path d="M7580 2863 c0 -42 4 -73 10 -73 6 0 10 11 10 24 0 19 4 22 25 18 34
-6 55 14 55 53 0 41 -15 54 -62 52 l-38 -1 0 -73z m65 21 c0 -19 -6 -30 -17
-32 -21 -4 -34 34 -17 54 18 22 34 11 34 -22z"/>
<path d="M7717 2922 c-35 -39 -13 -92 38 -92 52 0 75 59 37 93 -24 22 -55 21
-75 -1z m61 -41 c-4 -35 -41 -37 -46 -2 -4 26 13 42 35 34 8 -3 13 -16 11 -32z"/>
<path d="M7990 2885 c0 -30 5 -55 10 -55 6 0 10 25 10 55 0 30 -4 55 -10 55
-5 0 -10 -25 -10 -55z"/>
<path d="M8056 2924 c-19 -18 -21 -65 -4 -82 29 -29 98 -4 98 36 0 50 -61 80
-94 46z m62 -43 c-4 -35 -41 -37 -46 -2 -4 26 13 42 35 34 8 -3 13 -16 11 -32z"/>
<path d="M8170 2884 c0 -40 4 -54 14 -54 10 0 16 14 18 43 2 29 8 42 18 42 10
0 16 -13 18 -42 2 -29 8 -43 18 -43 10 0 14 13 14 50 0 28 -3 51 -7 51 -5 1
-27 3 -50 4 l-43 3 0 -54z"/>
<path d="M8300 2885 c0 -42 3 -55 15 -55 12 0 15 13 15 55 0 42 -3 55 -15 55
-12 0 -15 -13 -15 -55z"/>
<path d="M8360 2883 c0 -40 4 -53 14 -53 10 0 16 14 18 43 2 29 8 42 18 42 10
0 16 -13 18 -42 2 -29 8 -43 18 -43 18 0 20 83 2 98 -7 6 -30 10 -50 9 l-38
-1 0 -53z"/>
<path d="M8494 2923 c-34 -34 -5 -99 39 -91 19 4 27 1 27 -9 0 -12 -8 -14 -36
-8 -28 5 -35 3 -32 -7 3 -7 20 -14 38 -16 45 -5 60 17 60 89 l0 56 -41 0 c-22
0 -47 -6 -55 -14z m61 -22 c8 -26 -5 -53 -24 -49 -29 6 -27 68 3 68 8 0 17 -8
21 -19z"/>
<path d="M8809 2924 c-12 -15 -10 -16 20 -9 26 5 32 4 29 -6 -2 -7 -15 -16
-29 -19 -17 -4 -24 -13 -24 -30 0 -22 4 -25 43 -26 l42 -2 0 48 c0 34 -4 50
-16 54 -27 10 -51 7 -65 -10z m51 -59 c0 -8 -6 -15 -14 -15 -20 0 -29 17 -14
23 22 9 28 7 28 -8z"/>
<path d="M8970 2931 c0 -23 41 -101 53 -101 11 0 47 79 47 103 0 19 -22 4 -31
-23 -6 -16 -14 -30 -18 -30 -4 0 -12 14 -18 30 -10 28 -33 42 -33 21z"/>
<path d="M9108 2929 c-21 -12 -24 -69 -6 -87 17 -17 63 -15 79 5 13 15 11 16
-23 9 -31 -6 -38 -4 -38 9 0 11 10 15 35 15 39 0 42 6 19 38 -16 24 -39 27
-66 11z m50 -27 c2 -7 -6 -12 -17 -12 -21 0 -27 11 -14 24 9 9 26 2 31 -12z"/>
<path d="M4301 2917 c-14 -18 -2 -30 16 -15 10 8 17 8 25 0 9 -9 4 -14 -19
-23 -61 -21 -45 -69 21 -61 35 4 36 5 36 46 0 23 -5 47 -12 54 -16 16 -53 15
-67 -1z m49 -61 c0 -21 -20 -30 -33 -17 -9 9 -8 14 3 21 21 14 30 12 30 -4z"/>
<path d="M4460 2918 c0 -28 34 -98 47 -98 13 0 52 72 53 98 0 25 -22 11 -37
-25 l-15 -38 -15 38 c-15 36 -33 50 -33 25z"/>
<path d="M4589 2909 c-21 -21 -20 -61 1 -83 12 -12 59 -11 73 3 16 16 -1 27
-23 14 -14 -10 -21 -9 -30 2 -11 13 -7 15 24 15 32 0 36 3 36 25 0 23 -24 45
-49 45 -6 0 -20 -9 -32 -21z m51 -14 c11 -13 8 -15 -15 -15 -23 0 -26 2 -15
15 7 8 14 15 15 15 1 0 8 -7 15 -15z"/>
<path d="M1220 2446 c0 -44 4 -76 10 -76 6 0 10 23 10 52 0 58 10 56 25 -5 13
-54 36 -55 51 -2 l12 40 3 -39 c2 -22 10 -41 17 -44 9 -3 12 16 12 73 0 74 -1
76 -22 73 -18 -2 -25 -13 -32 -45 -6 -24 -13 -43 -16 -43 -4 0 -11 19 -16 43
-7 33 -14 43 -32 45 -21 3 -22 0 -22 -72z"/>
<path d="M1780 2504 c0 -9 5 -14 12 -12 18 6 21 28 4 28 -9 0 -16 -7 -16 -16z"/>
<path d="M2140 2516 c0 -3 12 -37 26 -76 33 -87 48 -88 80 -5 27 71 29 85 10
85 -7 0 -19 -20 -26 -45 -7 -25 -16 -48 -21 -50 -4 -3 -15 17 -24 45 -10 29
-23 50 -31 50 -8 0 -14 -2 -14 -4z"/>
<path d="M2400 2445 c0 -43 4 -75 10 -75 6 0 10 32 10 75 0 43 -4 75 -10 75
-6 0 -10 -32 -10 -75z"/>
<path d="M1512 2493 c-5 -10 -6 -40 -3 -68 5 -42 10 -51 29 -53 12 -2 22 1 22
7 0 6 -4 11 -10 11 -15 0 -12 67 3 74 10 5 10 7 0 12 -7 3 -13 12 -13 20 0 20
-17 18 -28 -3z"/>
<path d="M1402 2468 c-17 -17 -15 -73 2 -87 18 -15 68 -10 74 7 2 8 -5 11 -25
10 -15 -2 -30 2 -33 7 -3 6 10 11 28 13 22 2 32 8 32 21 0 23 -19 41 -45 41
-12 0 -26 -5 -33 -12z m56 -25 c2 -8 -5 -13 -17 -13 -12 0 -21 6 -21 16 0 18
31 15 38 -3z"/>
<path d="M1587 2462 c-19 -21 -21 -45 -7 -73 13 -23 62 -26 80 -4 11 13 9 15
-16 13 -16 -2 -31 2 -34 7 -3 6 10 11 28 13 37 4 45 34 13 52 -28 15 -46 12
-64 -8z m51 -20 c2 -7 -6 -12 -17 -12 -21 0 -27 11 -14 24 9 9 26 2 31 -12z"/>
<path d="M1693 2465 c-8 -23 2 -88 15 -93 8 -2 12 8 12 32 0 25 6 40 20 48 11
7 20 16 20 20 0 12 -62 5 -67 -7z"/>
<path d="M1780 2425 c0 -41 3 -56 13 -52 7 2 12 22 12 52 0 30 -5 50 -12 53
-10 3 -13 -12 -13 -53z"/>
<path d="M1840 2423 c0 -29 5 -53 10 -53 6 0 10 15 10 33 0 41 13 62 34 54 11
-4 16 -19 16 -47 0 -22 5 -40 11 -40 6 0 9 21 7 53 l-3 52 -42 1 -43 1 0 -54z"/>
<path d="M1968 2454 c-8 -17 -8 -33 -2 -52 8 -22 16 -27 42 -25 21 1 32 -3 29
-10 -2 -7 -20 -11 -40 -10 -29 2 -35 -1 -30 -13 4 -11 17 -14 47 -12 l41 3 3
70 3 71 -41 1 c-35 2 -43 -2 -52 -23z m66 -17 c8 -12 7 -21 -6 -33 -20 -20
-38 -11 -38 20 0 39 23 46 44 13z"/>
<path d="M2293 2473 c-26 -10 -12 -24 17 -18 37 8 42 -12 5 -21 -31 -8 -47
-27 -39 -47 4 -12 18 -16 50 -15 l44 1 0 41 c0 23 -5 47 -12 54 -12 12 -43 15
-65 5z m47 -68 c0 -8 -9 -15 -20 -15 -20 0 -26 11 -13 23 12 13 33 7 33 -8z"/>
<path d="M2450 2473 c0 -24 36 -103 47 -103 13 0 31 33 47 88 12 38 -14 25
-31 -15 l-16 -38 -12 34 c-10 31 -35 55 -35 34z"/>
<path d="M2582 2468 c-17 -17 -15 -73 2 -87 18 -15 68 -10 74 7 2 8 -5 11 -25
10 -15 -2 -30 2 -33 7 -3 6 10 11 28 13 22 2 32 8 32 21 0 23 -19 41 -45 41
-12 0 -26 -5 -33 -12z m51 -23 c1 -5 -6 -11 -15 -13 -11 -2 -18 3 -18 13 0 17
30 18 33 0z"/>
<path d="M6120 2405 c0 -43 4 -75 10 -75 6 0 10 14 10 30 0 22 5 30 18 30 10
0 26 -13 35 -30 10 -16 25 -30 33 -30 19 0 18 13 -5 42 -19 24 -19 24 0 36 44
28 9 72 -57 72 l-44 0 0 -75z m86 34 c3 -6 0 -15 -7 -20 -21 -14 -53 -6 -57
14 -3 13 3 17 27 17 16 0 33 -5 37 -11z"/>
<path d="M6500 2465 c0 -8 7 -15 15 -15 8 0 15 7 15 15 0 8 -7 15 -15 15 -8 0
-15 -7 -15 -15z"/>
<path d="M6630 2455 c0 -22 -3 -25 -24 -19 -34 8 -64 -36 -50 -74 8 -24 15
-27 57 -29 l47 -2 0 75 c0 59 -3 74 -15 74 -9 0 -15 -9 -15 -25z m-5 -71 c0
-22 -5 -29 -20 -29 -23 0 -32 30 -14 51 18 22 34 11 34 -22z"/>
<path d="M6937 2473 c-4 -3 -7 -37 -7 -75 0 -54 3 -68 15 -68 12 0 15 15 15
75 0 69 -6 86 -23 68z"/>
<path d="M6276 2424 c-19 -18 -21 -65 -4 -82 17 -17 63 -15 79 4 11 14 9 15
-24 9 -25 -5 -37 -4 -37 4 0 6 16 11 35 11 27 0 35 4 35 18 0 22 -30 52 -53
52 -8 0 -23 -7 -31 -16z m52 -22 c2 -7 -6 -12 -17 -12 -21 0 -27 11 -14 24 9
9 26 2 31 -12z"/>
<path d="M6393 2433 c-30 -11 -6 -63 28 -63 10 0 21 -5 25 -12 5 -8 -3 -9 -30
-5 -27 4 -36 3 -33 -6 2 -7 21 -12 43 -12 33 0 39 4 42 23 3 18 -3 25 -27 33
-42 15 -40 33 1 23 29 -6 31 -5 19 10 -13 15 -43 20 -68 9z"/>
<path d="M6500 2386 c0 -44 3 -56 16 -56 12 0 14 10 12 52 -4 74 -28 77 -28 4z"/>
<path d="M6692 2388 l3 -53 48 -2 48 -2 -3 51 c-4 64 -28 80 -28 19 0 -29 -5
-44 -16 -48 -21 -8 -34 13 -34 55 0 17 -5 32 -11 32 -6 0 -9 -21 -7 -52z"/>
<path d="M6819 2424 c-11 -14 -9 -15 19 -12 40 4 42 -15 1 -25 -24 -6 -30 -13
-27 -30 3 -19 10 -22 48 -24 l45 -1 -4 46 c-2 26 -8 50 -15 54 -19 13 -53 9
-67 -8z m55 -59 c-6 -16 -34 -21 -34 -7 0 13 11 22 26 22 8 0 11 -6 8 -15z"/>
<path d="M6298 2165 c19 -53 31 -75 42 -73 13 3 58 104 59 136 2 23 -27 12
-33 -13 -3 -13 -11 -37 -17 -52 l-11 -28 -18 50 c-9 29 -24 51 -33 53 -14 3
-13 -8 11 -73z"/>
<path d="M6530 2164 c0 -56 3 -75 13 -72 8 3 13 30 15 76 2 60 0 72 -13 72
-12 0 -15 -14 -15 -76z"/>
<path d="M6417 2194 c-16 -16 -5 -25 23 -19 38 8 40 -10 3 -20 -61 -15 -47
-65 18 -62 l40 1 -3 51 c-3 49 -3 50 -38 53 -20 2 -39 0 -43 -4z m53 -63 c0
-14 -18 -23 -30 -16 -6 4 -8 11 -5 16 8 12 35 12 35 0z"/>
<path d="M6586 2178 c15 -50 35 -88 44 -88 10 0 50 81 50 101 0 21 -23 7 -33
-21 -6 -16 -15 -30 -18 -30 -4 0 -10 14 -14 30 -4 17 -13 30 -21 30 -11 0 -13
-6 -8 -22z"/>
<path d="M6712 2188 c-7 -7 -12 -26 -12 -43 0 -17 5 -36 12 -43 16 -16 53 -15
67 1 14 18 2 30 -15 16 -14 -11 -34 -4 -34 12 0 5 16 9 35 9 39 0 39 -1 25 34
-7 20 -17 26 -38 26 -15 0 -33 -5 -40 -12z m53 -18 c3 -5 -3 -10 -14 -10 -12
0 -21 5 -21 10 0 6 6 10 14 10 8 0 18 -4 21 -10z"/>
<path d="M2540 1720 c0 -56 3 -70 15 -70 10 0 15 10 15 30 0 27 3 30 30 30 17
0 30 5 30 10 0 6 -13 10 -30 10 -23 0 -30 4 -30 20 0 16 7 20 35 20 19 0 35 5
35 10 0 6 -22 10 -50 10 l-50 0 0 -70z"/>
<path d="M2670 1715 c0 -62 2 -73 15 -69 11 5 15 23 15 75 0 55 -3 69 -15 69
-12 0 -15 -15 -15 -75z"/>
<path d="M3020 1721 l0 -69 50 -4 c35 -2 50 1 50 10 0 7 -14 12 -35 12 l-35 0
0 60 c0 47 -3 60 -15 60 -12 0 -15 -14 -15 -69z"/>
<path d="M3150 1780 c0 -5 4 -10 9 -10 6 0 13 5 16 10 3 6 -1 10 -9 10 -9 0
-16 -4 -16 -10z"/>
<path d="M2732 1738 c-28 -28 -4 -98 33 -98 24 0 45 12 45 26 0 17 -12 18 -27
3 -6 -6 -16 -8 -22 -5 -22 14 -10 26 24 26 37 0 42 9 25 41 -12 22 -59 26 -78
7z m58 -18 c0 -5 -9 -10 -20 -10 -11 0 -20 5 -20 10 0 6 9 10 20 10 11 0 20
-4 20 -10z"/>
<path d="M2840 1743 c0 -3 7 -15 17 -25 15 -17 15 -19 -2 -38 -13 -15 -16 -23
-8 -31 8 -8 15 -6 24 9 l13 21 14 -20 c10 -14 18 -17 24 -11 7 7 5 18 -6 33
-14 21 -14 24 1 41 20 23 9 36 -17 20 -12 -7 -21 -8 -25 -2 -7 11 -35 14 -35
3z"/>
<path d="M3150 1694 c0 -73 24 -70 28 4 2 42 0 52 -12 52 -13 0 -16 -12 -16
-56z"/>
<path d="M3210 1694 c0 -64 17 -73 22 -11 2 34 7 42 23 42 16 0 21 -8 23 -37
5 -56 24 -46 20 10 l-3 47 -42 1 -43 2 0 -54z"/>
<path d="M3341 1736 c-7 -8 -11 -30 -9 -48 4 -42 48 -62 75 -35 20 20 10 35
-12 17 -13 -11 -19 -11 -33 3 -15 16 -13 17 26 17 47 0 46 -1 32 34 -7 20 -17
26 -39 26 -15 0 -34 -6 -40 -14z m54 -16 c4 -6 -5 -10 -20 -10 -15 0 -24 4
-20 10 3 6 12 10 20 10 8 0 17 -4 20 -10z"/>
</g>
</svg>
